<svg width="120" height="120" viewBox="0 0 120 120" fill="none" xmlns="http://www.w3.org/2000/svg">
<path d="M34.0751 73.7821L33.6803 73.9384C26.6982 69.7491 21.9499 67.86 18.2916 63.4958C14.6334 59.1316 8.66465 37.2462 5.5127 28.9611C15.3562 25.478 40.9493 15.5133 53.6702 8.97119C56.4389 14.0985 61.7907 24.6975 66.8763 36.4236L68.8965 14.6733C81.6174 15.7334 112.368 17.5302 120 17.1668C119.341 38.7447 117.812 65.4247 116.752 75.5711L101.597 74.6205C100.732 82.3595 98.7725 95.9769 95.6741 114.285C76.4111 115.012 51.956 110.991 41.2039 108.871L44.092 88.7185L63.4102 101.652L70.2132 103.095L68.8013 97.8321L45.4925 81.2074L46.8554 71.6668L49.7573 67.4881C45.0682 69.4307 39.8102 71.512 34.0751 73.7821Z" fill="#F4D5FA"/>
<path fill-rule="evenodd" clip-rule="evenodd" d="M54.7837 3.4232C55.0788 3.43872 55.3583 3.46977 55.4049 3.46977C55.4515 3.48529 55.7776 4.16833 56.1348 5.00661C56.4765 5.84489 57.0511 7.28859 57.3928 8.23553C57.7345 9.18247 58.3557 10.8901 58.7905 12.0388C59.2098 13.1876 59.8311 14.9417 60.1883 15.9197C60.5299 16.8977 61.1822 18.714 61.6171 19.9559C62.0519 21.1978 62.5799 22.6259 62.7818 23.1382C62.9837 23.6505 63.2943 24.5353 63.4652 25.1097C63.6515 25.6996 63.869 26.1653 63.9466 26.1653C64.0243 26.1653 64.1019 26.305 64.1019 26.4758C64.1019 26.6466 64.1796 26.8173 64.2572 26.8639C64.3349 26.9105 64.4436 26.6776 64.4902 26.3516C64.5368 26.0411 64.6765 24.6906 64.8008 23.3711C64.925 22.0516 65.1269 19.6299 65.2667 18.0154C65.3909 16.401 65.5618 14.3053 65.6705 13.3583C65.7637 12.4114 65.8879 11.5886 65.9345 11.5265C65.9966 11.4489 66.1985 11.48 66.4004 11.6042C66.7266 11.806 66.7421 11.8836 66.7421 14.2121C66.7421 15.5316 66.6023 18.5432 66.4315 20.8873C66.2606 23.2314 66.0432 26.274 65.9656 27.6401C65.8879 29.0062 65.8569 30.543 65.9034 31.0553C65.95 31.5676 66.1675 32.4369 66.3849 32.9957C66.5868 33.5546 66.9906 34.6723 67.2856 35.4795C67.5652 36.2867 68.1554 37.9322 68.5747 39.1276C69.0095 40.3229 69.5841 41.8908 69.8482 42.6204C70.1277 43.35 70.6247 44.7006 70.9663 45.6475C71.308 46.5944 71.8205 48.0381 72.1156 48.8764C72.4107 49.6992 72.8145 50.8169 73.0319 51.3447C73.2493 51.888 73.5444 52.7418 73.6686 53.2541C73.8084 53.7664 73.9637 54.2476 74.0258 54.3407C74.088 54.4339 74.2588 54.7909 74.3986 55.148C74.5694 55.5826 74.616 55.9086 74.5228 56.0794C74.4607 56.2346 73.2338 56.9332 71.805 57.6317C70.3917 58.3458 69.1959 58.9202 69.1493 58.9202C69.1027 58.9202 67.9224 59.4791 66.5091 60.1621C64.7853 61.0004 63.8845 61.5126 63.7758 61.7455C63.6826 61.9473 63.5739 62.5217 63.5428 63.034C63.5273 63.5462 63.4186 64.5242 63.3254 65.2073C63.2322 65.8903 63.0924 66.7596 63.0148 67.1477C62.9371 67.5358 62.8284 68.2965 62.7818 68.8553C62.7352 69.4142 62.7508 69.942 62.8129 70.0351C62.8905 70.1438 64.2572 70.2369 66.6644 70.3145C68.7144 70.3766 71.8205 70.4543 73.5755 70.5008C75.3304 70.5319 77.2096 70.6405 77.7687 70.7026C78.3278 70.7803 80.1759 70.8424 81.8842 70.8579C83.5926 70.8579 85.9998 70.92 87.2422 71.0131C88.4846 71.0907 90.4725 71.1684 91.6684 71.1839C92.8642 71.1839 94.4638 71.2615 95.2403 71.3391C96.0169 71.4323 96.8555 71.4633 97.104 71.4167C97.3525 71.3702 99.3248 71.4012 101.452 71.5099C103.596 71.603 106.624 71.7117 108.208 71.7427C109.792 71.7738 111.78 71.8824 112.634 71.9756C113.489 72.0687 114.234 72.224 114.296 72.3171C114.358 72.4258 114.42 72.612 114.42 72.7362C114.42 72.8604 114.265 73.1554 113.722 73.7763L110.848 73.6677C109.264 73.59 106.748 73.5279 105.257 73.5124C103.767 73.4969 101.872 73.5279 101.064 73.5745C100.257 73.6211 97.4922 73.7298 94.9297 73.8229C92.3672 73.916 88.9039 74.1023 87.2422 74.2265C85.5804 74.3507 82.7073 74.5215 80.8747 74.5991C79.0421 74.6767 76.5262 74.8319 75.2838 74.9095C74.0414 75.0027 71.4167 75.1424 69.4599 75.22C67.5031 75.2976 64.2417 75.4684 62.2383 75.6081C60.2349 75.7323 58.2625 75.9186 57.8587 75.9962C57.4394 76.0893 56.9735 76.1514 56.8026 76.1514C56.6318 76.1514 56.3057 75.9652 56.0882 75.7168C55.7 75.3132 55.7 75.2666 55.7932 73.8229C55.8553 73.0157 55.9951 71.8359 56.1193 71.2149C56.2435 70.6095 56.3367 70.0041 56.3367 69.8954C56.3367 69.8023 56.2746 69.6005 56.197 69.4763C56.0727 69.2745 55.8553 69.3521 54.8303 69.9265C54.1625 70.3145 53.0288 70.92 52.2988 71.2925C51.5689 71.6496 50.8079 72.0842 50.5905 72.2395C50.3731 72.4102 49.6742 72.8449 49.0374 73.2019C48.4007 73.5745 47.4533 74.1334 46.9408 74.4438C46.4283 74.7543 45.6984 75.189 45.3101 75.4063C44.9219 75.6236 44.5026 75.9341 44.3783 76.0893C44.2541 76.2291 44.0367 77.0673 43.8969 77.9211C43.7571 78.7905 43.6795 79.5977 43.7105 79.7219C43.7261 79.8461 44.2541 80.2962 44.8598 80.7309C45.481 81.15 46.4439 81.7865 47.003 82.1436C47.5621 82.4851 49.1462 83.4941 50.5128 84.3945C51.8795 85.2949 53.65 86.4436 54.4265 86.9559C55.2185 87.4526 57.6257 89.0516 59.7845 90.4798C61.9432 91.9079 63.9621 93.243 64.2572 93.4448C64.5523 93.6466 64.9561 93.9881 65.158 94.1899C65.3444 94.3762 65.5928 94.6401 65.7015 94.7488C65.7947 94.8574 66.447 95.3697 67.1303 95.8975C67.8137 96.4253 69.8171 98.3037 71.6031 100.089C73.3736 101.859 74.8179 103.442 74.8179 103.582C74.8179 103.737 74.6315 103.97 74.3986 104.11C73.9948 104.342 73.855 104.327 72.0224 103.923C70.9508 103.675 69.9103 103.442 69.6929 103.395C69.4754 103.349 68.8853 103.24 68.3728 103.163C67.8603 103.085 66.8508 102.883 66.1209 102.697C65.3909 102.526 64.3815 102.262 63.869 102.122C63.3565 101.983 62.7197 101.688 62.4712 101.455C62.2227 101.222 59.8155 99.5766 57.1288 97.7914C54.4575 96.0062 52.0037 94.3762 51.6621 94.1589C51.3359 93.9415 50.1556 93.1498 49.0374 92.3736C47.9193 91.5975 46.6147 90.7281 46.1643 90.4332C45.6984 90.1382 45.0151 89.688 44.6579 89.4397C44.2851 89.1913 43.8037 88.8653 43.5707 88.6945C43.3223 88.5393 43.0272 88.4151 42.9029 88.4151C42.7787 88.4151 42.6389 88.5703 42.5923 88.7566C42.5613 88.9584 42.4526 89.6415 42.3594 90.2779C42.2817 90.9144 42.0954 92.0632 41.9711 92.8393C41.8469 93.6155 41.645 94.935 41.5052 95.7888C41.381 96.6426 41.1325 98.1484 40.9616 99.1264C40.7908 100.104 40.5734 101.362 40.4957 101.921C40.4181 102.48 40.1696 103.908 39.9522 105.103C39.7503 106.298 39.5639 107.463 39.5639 107.695C39.5639 108.115 39.5794 108.13 40.6976 108.223C41.3033 108.27 42.0954 108.332 42.437 108.363C42.7787 108.394 43.7882 108.456 44.6889 108.518C45.5897 108.565 46.537 108.642 46.7855 108.673C47.034 108.72 49.2393 108.844 51.6776 108.984C54.1159 109.108 57.5015 109.325 59.2098 109.45C60.9182 109.589 63.7137 109.791 65.422 109.915C67.1303 110.04 69.786 110.21 71.3235 110.303C72.8611 110.397 75.9361 110.614 78.1569 110.769C80.3778 110.94 83.7013 111.173 85.5339 111.297C87.3664 111.421 90.1619 111.576 91.746 111.623C94.0756 111.716 94.6502 111.685 94.79 111.53C94.8831 111.406 95.0695 110.366 95.2248 109.217C95.3646 108.068 95.5975 106.562 95.7063 105.879C95.8305 105.196 96.1566 103.069 96.4207 101.144C96.6691 99.2196 97.0263 96.8444 97.1972 95.8665C97.368 94.8885 97.601 93.274 97.7407 92.296C97.865 91.318 98.0358 90.2935 98.1135 90.0451C98.2066 89.7967 98.2843 89.362 98.2843 89.1137C98.2998 88.8653 98.4085 88.027 98.5328 87.2508C98.657 86.4747 98.8279 85.3725 98.9055 84.7671C98.9987 84.1616 99.1229 83.5717 99.2006 83.4475C99.2627 83.3234 99.4025 82.7335 99.4957 82.128C99.5889 81.5226 99.7752 80.2652 99.915 79.3338C100.039 78.4024 100.21 77.4865 100.288 77.3157C100.365 77.145 100.536 76.6327 100.66 76.1825C100.8 75.7478 100.987 75.3753 101.064 75.3753C101.142 75.3753 101.251 75.5305 101.297 75.7168C101.344 75.9186 101.375 76.493 101.375 77.0052C101.375 77.5175 101.204 79.2562 100.987 80.8861C100.769 82.5161 100.567 84.053 100.521 84.3013C100.474 84.5497 100.365 85.4346 100.272 86.2418C100.179 87.049 100.055 89.0361 99.9771 90.666C99.8995 92.296 99.7597 94.904 99.6665 96.4874C99.5889 98.0708 99.4801 100.058 99.4335 100.912C99.387 101.765 99.3248 102.992 99.2782 103.628C99.2317 104.265 99.1385 106.438 99.0453 108.441C98.9676 110.443 98.8123 112.477 98.7192 112.942C98.626 113.408 98.2843 114.2 97.9737 114.697C97.6631 115.193 97.3369 115.597 97.2593 115.581C97.1816 115.581 95.6752 115.628 93.9203 115.675C92.1653 115.706 90.1774 115.83 89.4941 115.923C88.8108 116.016 87.6615 116.109 86.9316 116.125C86.2017 116.156 84.7729 116.218 83.7479 116.265C82.7229 116.311 80.6262 116.42 79.0887 116.482C77.5512 116.544 73.8861 116.591 70.9353 116.575C67.9845 116.575 64.5989 116.513 63.403 116.451C62.2072 116.389 61.1822 116.311 61.1046 116.265C61.0424 116.233 59.5826 116.171 57.8587 116.14C56.1193 116.094 53.0598 116.016 51.0564 115.954C49.053 115.907 47.2514 115.799 47.0496 115.721C46.8632 115.644 45.8692 115.581 44.8442 115.581C43.7416 115.581 42.5768 115.488 40.9616 115.116L41.0704 113.129C41.1325 112.042 41.1946 110.847 41.1946 109.76L40.1075 109.667C39.5018 109.62 38.8029 109.481 38.5544 109.341C38.2438 109.17 38.0575 108.937 37.9643 108.58C37.8866 108.239 37.9798 107.183 38.2438 105.491C38.4613 104.078 38.8029 101.781 39.0048 100.368C39.2222 98.9557 39.5018 97.1083 39.6416 96.2545C39.7813 95.4007 40.0919 93.4448 40.356 91.9079C40.6044 90.3711 40.884 88.7566 40.9772 88.3375C41.0704 87.9028 41.1014 87.4061 41.0548 87.2043C41.0082 87.018 40.8063 86.7851 40.6044 86.692C40.4181 86.5833 37.809 84.8912 34.8271 82.9042C31.8298 80.9172 29.112 79.1475 28.1491 78.5886L27.2949 78.9457C26.829 79.132 25.4468 79.784 24.2199 80.3583C22.8066 81.0414 21.7816 81.445 20.7411 81.5071L20.213 80.0323C19.918 79.2251 19.2968 77.4244 18.8308 76.0272C18.3649 74.6456 17.9767 73.2951 17.9767 73.0467C17.9767 72.6276 18.0233 72.5965 18.3649 72.6586C18.5824 72.7052 18.7532 72.6586 18.7532 72.581C18.7532 72.5034 18.6911 72.4258 18.5979 72.4258C18.5047 72.4258 18.3183 72.286 18.163 72.1308C18.0233 71.9601 17.1225 71.3081 16.1751 70.6871C15.2278 70.0662 13.6592 69.0106 12.6808 68.3586C11.7024 67.6911 10.0872 66.5734 9.09329 65.8748C8.09935 65.1607 6.63949 64.1361 5.86297 63.5773C5.07092 63.0184 3.92167 62.1646 3.28493 61.6679C2.64818 61.1866 2.13568 60.6744 2.13568 60.5502C2.13568 60.426 2.07356 60.3173 1.98037 60.3173C1.88719 60.3173 1.82507 60.0845 1.82507 59.805C1.82507 59.5411 2.01143 58.8892 2.22886 58.3769C2.46181 57.8646 2.89667 57.1195 3.20727 56.7158C3.58 56.2294 4.02521 55.8724 4.54289 55.6447C4.97774 55.4584 5.38153 55.3032 5.47471 55.3032C5.56789 55.3032 6.46865 55.7689 7.49366 56.3588C8.51867 56.9332 10.0562 57.818 10.9103 58.3148C11.7645 58.8115 12.5876 59.2462 12.7429 59.2928C12.9293 59.3549 13.0069 59.3083 13.0069 59.1065C13.0069 58.9668 12.6032 57.6938 12.1372 56.2812C11.6558 54.8685 11.2054 53.6111 11.1433 53.4869C11.0656 53.3627 10.8638 52.7728 10.6929 52.1674C10.5221 51.562 10.0717 50.2114 9.68344 49.1403C9.31072 48.0692 8.03722 44.3746 6.88798 40.9128C5.7232 37.451 4.58948 33.9582 4.37205 33.151C4.15463 32.3437 3.7819 31.0087 3.51788 30.2015C3.26939 29.3942 3.0675 28.6802 3.0675 28.6025C3.0675 28.5404 3.19174 28.556 3.34705 28.6336C3.48682 28.7112 3.87508 29.3477 4.18569 30.0618C4.4963 30.7758 5.07092 32.204 5.47471 33.2286C5.86297 34.2531 6.32888 35.4329 6.49972 35.8676C6.67055 36.2867 7.12093 37.5597 7.49366 38.6619C7.86639 39.764 8.4876 41.5493 8.87586 42.6204C9.27965 43.6915 10.6463 47.6966 11.9354 51.5465C13.2244 55.3808 14.4202 58.8736 14.591 59.3083C14.7464 59.7274 14.9948 60.3173 15.1501 60.6123C15.2899 60.8917 15.7714 61.3574 16.1907 61.6368C16.6255 61.9163 17.6039 62.5838 18.3649 63.1271C19.1259 63.6549 22.9775 66.2318 26.9066 68.8553C30.8358 71.4788 34.1438 73.6677 34.2525 73.7142C34.3457 73.7763 34.8427 73.6211 35.3396 73.3727C35.8211 73.1243 36.6131 72.7207 37.0946 72.4723C37.576 72.2395 38.1351 71.9601 38.337 71.8824C38.5389 71.7893 39.0669 71.5254 39.4863 71.2925C39.9211 71.0597 41.2722 70.3766 42.5147 69.7557C43.7571 69.1503 45.6363 68.2189 46.7079 67.6911C47.7795 67.1477 50.9166 65.6109 53.6966 64.2448C56.4765 62.8787 59.9242 61.1867 61.3841 60.4726C62.844 59.774 65.7792 58.3303 67.9069 57.2747C70.0501 56.2191 71.8826 55.3498 71.9914 55.3498C72.0845 55.3498 72.2243 55.1945 72.2709 54.9927C72.3175 54.8064 72.2088 54.3097 72.0224 53.875C71.836 53.4404 71.4789 52.54 71.2459 51.8569C71.0129 51.1739 70.5936 50.0252 70.3451 49.2955C70.0811 48.5659 69.5531 47.1067 69.1493 46.0356C68.761 44.9645 68.1709 43.3345 67.8292 42.3875C67.5031 41.4406 66.944 39.9193 66.5868 38.9723C66.2296 38.0254 65.7947 36.8456 65.6239 36.3333C65.4375 35.821 64.9561 34.5326 64.5523 33.4614C64.133 32.3903 63.7913 31.4123 63.7913 31.2881C63.7913 31.1639 63.5739 30.4964 63.3099 29.8134C63.0459 29.1303 62.7663 28.5094 62.7042 28.4163C62.6265 28.3231 62.5333 28.0903 62.5023 27.8729C62.4712 27.6556 62.2072 26.8484 61.9432 26.0877C61.6636 25.3271 61.089 23.7436 60.6542 22.5949C60.2349 21.4461 59.8466 20.3905 59.8311 20.2663C59.8 20.1422 59.3341 18.8382 58.8061 17.3945C58.278 15.9508 57.75 14.476 57.6257 14.1345C57.5015 13.793 56.8026 11.8681 56.0882 9.86551C55.3583 7.86296 54.6905 6.01565 54.5818 5.78279C54.4731 5.54994 54.3333 5.34813 54.2401 5.33261C54.1469 5.33261 53.945 5.34813 53.7742 5.36365C53.6034 5.37918 53.0132 5.61203 52.4541 5.89146C51.895 6.18641 51.2738 6.46583 51.0564 6.52793C50.839 6.59002 49.1306 7.27306 47.2514 8.03372C45.3723 8.79438 43.7105 9.47742 43.5707 9.55504C43.4154 9.64818 42.6855 9.94313 41.9401 10.2381C41.1791 10.533 39.9832 11.0298 39.2533 11.3403C38.5234 11.6507 37.545 12.0699 37.079 12.2561C36.6131 12.458 35.3862 12.9702 34.3612 13.4049C33.3362 13.8396 31.6279 14.5381 30.5563 14.9883C29.4847 15.423 28.0559 16.0284 27.3726 16.3078C26.6892 16.6028 25.3847 17.1461 24.4684 17.5342C23.5366 17.9378 22.76 18.2483 22.7134 18.2483C22.6668 18.2483 22.2631 18.419 21.8282 18.6208C21.3778 18.8226 20.1665 19.3349 19.1415 19.7696C18.1164 20.2043 16.6876 20.7941 15.9577 21.0891C15.2278 21.384 13.799 21.9739 12.774 22.3931C11.749 22.8122 10.5221 23.3245 10.0562 23.5108C9.59026 23.7126 8.47207 24.1783 7.57131 24.5664C6.67055 24.939 5.33494 25.4978 4.58948 25.7928C3.82849 26.0877 3.0675 26.3206 2.88114 26.3206C2.67924 26.3206 2.43075 26.1809 2.30651 25.979C2.1978 25.7772 2.13568 25.5599 2.18227 25.4668C2.21333 25.3736 2.69477 25.0942 3.23833 24.8148C3.7819 24.5509 5.10198 23.9454 6.17358 23.4797C7.24517 23.014 9.48155 22.0516 11.1433 21.353C12.8051 20.6544 14.4513 19.9559 14.7929 19.8006C15.1346 19.6454 15.7714 19.3815 16.1907 19.2107C16.6255 19.04 17.5574 18.6364 18.2873 18.3259C19.0172 18.0154 20.1354 17.5652 20.7721 17.3169C21.4089 17.084 22.3873 16.6804 22.9464 16.432C23.5055 16.1681 24.3131 15.8421 24.7324 15.6869C25.1672 15.5472 25.571 15.3764 25.6642 15.3143C25.7574 15.2522 27.0464 14.6934 28.5373 14.0569C30.0283 13.4359 31.8453 12.6908 32.5752 12.3959C33.3052 12.1009 34.4078 11.6197 35.029 11.3247C35.6347 11.0453 36.2093 10.7969 36.3025 10.7969C36.3957 10.7969 38.1817 10.0518 40.3094 9.15142C42.4215 8.23553 44.8132 7.22649 45.6208 6.88497C46.4283 6.55897 48.0435 5.87593 49.1927 5.36365C50.342 4.8669 51.9572 4.21491 52.7647 3.91996C53.6189 3.60948 54.4731 3.40768 54.7837 3.4232V3.4232ZM72.9542 11.0608C73.3425 11.0919 74.9732 11.1695 76.6039 11.2626C78.2346 11.3403 79.974 11.4489 80.4865 11.4955C80.999 11.5421 82.3346 11.5886 83.4372 11.5886C84.5399 11.5886 85.9376 11.6663 86.5433 11.7439C87.149 11.837 89.3854 11.9302 91.513 11.9767C93.6562 12.0078 95.6441 12.1164 95.9392 12.1941C96.2343 12.2717 97.3525 12.3338 98.4241 12.3182C99.4957 12.3027 101.732 12.3803 103.394 12.489C105.056 12.5977 106.81 12.7063 107.276 12.7374C107.742 12.7684 109.839 12.846 111.936 12.8926C114.218 12.9547 116.16 13.0789 116.797 13.2186C117.371 13.3428 118.023 13.4359 118.256 13.4359C118.505 13.4204 118.8 13.5446 118.924 13.6843C119.126 13.9017 119.142 14.3518 119.048 16.6804C118.971 18.1862 118.862 20.5613 118.769 21.9739C118.676 23.3866 118.551 24.7837 118.458 25.0787C118.381 25.3736 118.287 26.957 118.225 28.5715C118.179 30.1859 118.101 31.8004 118.054 32.1419C118.008 32.4834 117.946 33.6788 117.915 34.7809C117.884 35.8831 117.775 37.2182 117.697 37.7304C117.604 38.2427 117.495 39.4691 117.449 40.4471C117.402 41.4251 117.325 42.7135 117.278 43.3189C117.231 43.9244 117.154 45.0731 117.123 45.8803C117.092 46.6876 117.029 47.8829 116.983 48.5194C116.921 49.1558 116.859 50.6306 116.828 51.7793C116.797 52.9281 116.734 54.2631 116.688 54.7288C116.626 55.1945 116.564 56.0328 116.517 56.5917C116.47 57.1505 116.408 58.7184 116.362 60.0845C116.315 61.4506 116.253 62.739 116.206 62.9563C116.175 63.1737 116.098 63.5152 116.051 63.7325C116.004 63.9499 115.942 65.4401 115.911 67.0701C115.88 68.7156 115.787 70.1593 115.694 70.3301C115.601 70.5008 115.492 70.8268 115.445 71.0597C115.352 71.4633 115.306 71.4788 114.855 71.3857C114.576 71.3391 114.234 71.1839 114.11 71.0597C113.908 70.8424 113.908 70.3922 114.156 67.008C114.312 64.9123 114.529 61.5747 114.653 59.6188C114.778 57.6628 114.979 54.0924 115.119 51.7017C115.259 49.3111 115.461 45.958 115.585 44.2504C115.709 42.5428 115.849 40.5092 115.896 39.7485C115.942 38.9879 116.051 36.9543 116.129 35.2467C116.206 33.5391 116.346 30.9156 116.424 29.4253C116.517 27.935 116.734 24.1473 116.936 21.027C117.2 16.6959 117.247 15.2988 117.107 15.128C116.983 14.9728 116.362 14.8796 115.011 14.802C113.97 14.7399 112.091 14.6157 110.848 14.5381C109.606 14.445 106.5 14.3053 103.937 14.2121C101.375 14.119 97.3214 13.9482 94.9297 13.824C92.5381 13.6998 88.407 13.4825 85.7668 13.3583C83.1266 13.2341 79.8031 13.0944 78.3899 13.0479C76.9766 13.0013 74.5383 12.8926 72.9542 12.7995C71.3701 12.7219 69.8326 12.6132 69.5376 12.5666C69.0716 12.5045 68.9629 12.4114 68.7921 11.9146C68.6679 11.6042 68.6368 11.2937 68.7144 11.2316C68.7766 11.1695 69.6152 11.0919 70.547 11.0608C71.4789 11.0298 72.566 11.0298 72.9542 11.0608V11.0608ZM51.3981 25.5599C51.5534 25.6375 51.6931 25.7928 51.6931 25.9014C51.6931 26.0101 51.0719 26.5534 50.3265 27.1123C49.581 27.6866 48.3696 28.6491 47.6397 29.2856C46.9098 29.9065 45.2325 31.5055 43.9124 32.8405C42.5923 34.1755 41.3344 35.3398 41.1169 35.4329C40.8995 35.5261 40.2472 35.8366 39.6416 36.1315C38.7563 36.5506 38.3681 36.6438 37.545 36.6283C36.784 36.6283 36.3491 36.5351 35.8056 36.2557C35.3707 36.0228 34.7806 35.495 34.3302 34.9517C33.9264 34.4394 33.3362 33.8806 33.0411 33.7098C32.7305 33.5235 32.2025 33.3993 31.7987 33.3993C31.3328 33.3838 30.6029 33.5856 29.6245 33.9892C28.8169 34.3152 28.0404 34.6723 27.9161 34.7809C27.7919 34.8896 27.4502 35.0914 27.1862 35.2311C26.9066 35.3708 26.5494 35.6037 26.3941 35.7434C26.2388 35.8986 25.7419 36.3333 25.276 36.7059C24.81 37.094 23.8472 37.9322 23.1483 38.5687C22.465 39.2207 21.5021 40.09 21.0206 40.5247C20.5547 40.9438 20.1354 41.4095 20.0888 41.5337C20.0422 41.6579 19.8403 41.8908 19.6229 42.0305C19.2346 42.2944 19.2036 42.2944 18.5513 41.6113L18.9551 40.8352C19.188 40.4005 19.685 39.6709 20.0733 39.2052C20.4771 38.7395 21.2536 37.7925 21.8282 37.125C22.4028 36.4575 23.3502 35.464 23.9559 34.9362C24.5616 34.4239 25.4623 33.6788 25.9748 33.2907C26.4873 32.9181 27.4968 32.3127 28.2267 31.9401C28.9567 31.5831 29.9351 31.2105 30.401 31.1329C30.8669 31.0397 31.5347 30.9777 31.8764 30.9777C32.218 30.9777 32.8548 31.1174 33.2741 31.3037C33.709 31.4899 34.3302 31.8315 34.6563 32.0488C34.9824 32.2661 35.4949 32.825 35.7745 33.2596C36.0696 33.7098 36.5355 34.2221 36.815 34.3929C37.079 34.5636 37.545 34.7033 37.8245 34.7033C38.0885 34.7033 38.7253 34.486 39.2222 34.2221C39.7813 33.9116 40.8529 33.0113 42.2041 31.6917C43.3533 30.574 44.7511 29.3321 45.3101 28.9596C45.8692 28.5715 46.8787 27.9195 47.5621 27.5004C48.2454 27.0812 49.317 26.4448 49.9537 26.0722C50.8545 25.5444 51.1496 25.4357 51.3981 25.5599V25.5599ZM86.0464 30.9932C86.5278 30.9932 87.4751 31.0863 88.143 31.226C88.7952 31.3657 89.6339 31.6296 89.9911 31.8159C90.3483 31.9867 91.0161 32.3593 91.4665 32.6232C92.0411 32.9647 92.4759 33.3838 92.8953 34.0203C93.2369 34.5326 93.6873 35.2001 93.9047 35.5416C94.1222 35.8676 94.5259 36.2557 94.7744 36.3799C95.085 36.5506 95.6286 36.6283 96.4051 36.6127C97.1506 36.6127 98.0669 36.473 98.9676 36.2091C99.7442 35.9918 100.816 35.7434 101.375 35.6503C101.934 35.5571 103.642 35.3864 105.18 35.2467C107.82 35.0293 107.991 35.0293 108.255 35.2932C108.41 35.4329 108.534 35.6503 108.519 35.7434C108.519 35.8521 108.286 36.0073 108.022 36.0849C107.742 36.147 106.531 36.442 105.335 36.7214C104.139 37.0008 102.462 37.451 101.608 37.7304C100.754 38.0099 99.5267 38.398 98.89 38.5842C98.0669 38.8326 97.3059 38.9258 96.3275 38.9258C95.2869 38.9258 94.6968 38.8481 94.0445 38.5998C93.5475 38.4135 92.9729 38.0875 92.7555 37.8391C92.5381 37.6062 92.1498 37.0008 91.9013 36.4885C91.6528 35.9763 91.2956 35.3553 91.0937 35.1069C90.8918 34.8586 90.4725 34.486 90.1619 34.2842C89.8358 34.0824 89.0282 33.7874 88.3759 33.6167C87.646 33.4304 86.6676 33.3062 85.9221 33.3062C85.2388 33.3062 84.0895 33.3993 83.3596 33.5235C82.6297 33.6477 81.3717 33.9582 80.5641 34.2221C79.7565 34.4705 78.7781 34.7809 78.3899 34.9051C78.0016 35.0293 77.1164 35.3243 76.4175 35.5416C75.7031 35.7589 74.9887 35.9452 74.8179 35.9452C74.647 35.9452 74.4762 35.8831 74.4296 35.79C74.383 35.6968 74.4607 35.4174 74.5849 35.169C74.7092 34.9207 75.0508 34.5326 75.3304 34.3308C75.5944 34.1134 76.4175 33.6632 77.1474 33.3372C77.8774 32.9957 79.0577 32.53 79.7876 32.2972C80.5175 32.0488 81.2164 31.8159 81.3406 31.7538C81.4649 31.6917 82.1948 31.521 82.9713 31.3813C83.7479 31.2571 84.5399 31.1174 84.7573 31.0863C84.9748 31.0397 85.5494 31.0087 86.0464 30.9932ZM51.7087 41.4872C51.7708 41.5027 51.7863 41.6269 51.7397 41.7355C51.6931 41.8287 51.1185 42.3099 50.4662 42.7756C49.8295 43.2413 48.6958 44.2193 47.9814 44.9489C47.2514 45.6785 46.1954 46.8583 45.6363 47.5879C45.0772 48.3176 44.1298 49.3576 43.5242 49.901C42.9185 50.4288 42.0022 51.1118 41.4741 51.4068C40.6355 51.8569 40.3404 51.9346 39.3775 51.9501C38.5234 51.9656 38.0885 51.888 37.6226 51.6551C37.2809 51.4844 36.4734 50.879 35.8366 50.3201C34.9203 49.4974 34.4699 49.2179 33.6624 48.9695C32.8082 48.7056 32.5286 48.6746 31.8453 48.8143C31.3949 48.9075 30.5873 49.2024 30.0593 49.4663C29.5157 49.7302 28.5529 50.3201 27.9161 50.7703C27.2794 51.236 26.0214 52.2761 25.1206 53.0833C24.2199 53.9061 23.3968 54.5736 23.3036 54.5736C23.1949 54.5736 23.1017 54.4339 23.1017 54.2631C23.1017 54.0768 23.7695 53.3006 24.7945 52.2761C25.7263 51.3602 26.9998 50.1183 27.621 49.5284C28.2578 48.923 29.2207 48.1157 29.7798 47.7121C30.3389 47.3085 31.2086 46.8428 31.7211 46.6565C32.451 46.3926 32.9324 46.3305 33.973 46.3771C35.1067 46.4237 35.4484 46.5013 36.3025 46.9204C36.8616 47.1999 37.7624 47.8518 38.3215 48.3641C38.8806 48.8919 39.5018 49.3576 39.7192 49.4042C39.9677 49.4663 40.387 49.3576 40.884 49.0937C41.3188 48.8919 42.7942 47.7432 44.1764 46.5634C45.5586 45.3681 46.9564 44.1883 47.2825 43.9244C47.6086 43.6605 48.3541 43.1327 48.9598 42.7446C49.5655 42.3565 50.2178 41.9529 50.4352 41.8442C50.6526 41.7355 50.9943 41.5958 51.1962 41.5337C51.3981 41.4716 51.631 41.4561 51.7087 41.4872V41.4872ZM84.3691 42.9464C85.2388 42.9464 86.2638 43.024 86.6986 43.1482C87.1179 43.2569 87.8168 43.5208 88.2517 43.7381C88.671 43.9554 89.2301 44.359 89.4786 44.654C89.7271 44.9489 90.0532 45.4302 90.193 45.7251C90.3327 46.0201 90.5812 46.4858 90.7521 46.7652C90.9074 47.0446 91.218 47.3396 91.4354 47.4482C91.6528 47.5414 92.2119 47.65 92.6778 47.6966C93.2525 47.7432 93.9203 47.6656 94.6968 47.4638C95.3335 47.293 96.343 47.0757 96.9487 46.9825C97.5544 46.8894 98.8123 46.6721 99.7442 46.5013C100.676 46.3461 102.229 46.0666 103.161 45.8803C104.093 45.7096 105.195 45.5699 105.599 45.5699C106.018 45.5699 106.345 45.632 106.345 45.7251C106.345 45.8183 106.158 45.9269 105.91 45.9735C105.677 46.0201 104.9 46.2374 104.17 46.4392C103.44 46.641 101.67 47.2309 100.21 47.7277C98.7502 48.2244 97.1816 48.7988 96.7157 48.9851C96.2498 49.1714 95.4112 49.4663 94.8521 49.6371C94.06 49.8699 93.4854 49.9165 92.2119 49.8854C90.7521 49.8389 90.488 49.7768 89.7271 49.3732C88.9816 48.954 88.8108 48.7677 88.2517 47.7277C87.91 47.0757 87.382 46.3305 87.0869 46.0822C86.7918 45.8183 86.2948 45.5388 85.9998 45.4302C85.7047 45.337 85.099 45.2594 84.6797 45.2594C84.2448 45.2594 83.2043 45.3681 82.3501 45.4923C81.4959 45.6164 80.2069 45.8803 79.477 46.0977C78.7471 46.315 77.7997 46.5944 77.3804 46.7186C76.93 46.8583 76.433 46.9049 76.169 46.8428C75.8274 46.7497 75.7497 46.641 75.7342 46.2684C75.7342 46.0201 75.8584 45.6941 76.0137 45.5543C76.169 45.4146 76.7126 45.1197 77.2251 44.9024C77.7376 44.6695 78.6384 44.3125 79.244 44.0951C79.8497 43.8623 80.8903 43.5208 81.5736 43.3345C82.4744 43.0706 83.2509 42.9619 84.3691 42.9464V42.9464ZM3.48682 54.1079C3.70425 54.1079 3.84402 54.201 3.84402 54.3407C3.84402 54.4649 3.54894 54.9151 3.17621 55.3342C2.81901 55.7689 2.08909 56.9332 1.56105 57.9422C1.03302 58.9668 0.504986 59.7895 0.365213 59.805C0.178848 59.8361 0.0856657 59.6809 0.0235441 59.1841C-0.0385774 58.765 0.0235441 58.1906 0.194378 57.6007C0.334152 57.0884 0.613699 56.4209 0.784533 56.1104C0.970898 55.8155 1.37469 55.3498 1.66977 55.0859C1.96484 54.822 2.41522 54.5115 2.67924 54.3718C2.92773 54.2321 3.30046 54.1234 3.48682 54.1079V54.1079ZM64.3349 78.0453C64.9871 78.0298 65.8258 78.1229 66.4315 78.2937C66.9906 78.4489 67.8137 78.7905 68.2796 79.0388C68.7455 79.2872 69.8016 80.0944 70.6092 80.824C71.8671 81.9418 72.2709 82.2057 73.1872 82.5161C74.0724 82.8111 74.616 82.8887 76.0603 82.8887C77.4736 82.9042 78.2501 82.8111 79.7876 82.4696C80.8592 82.2367 81.76 82.0038 81.8066 81.9728C81.8531 81.9418 82.3657 81.802 82.9713 81.6778C83.5615 81.5381 84.7263 81.2898 85.5339 81.1345C86.3414 80.9638 87.4441 80.793 87.9721 80.7464C88.5157 80.6999 88.9816 80.6999 89.0282 80.762C89.0592 80.8396 88.9971 81.0259 88.8729 81.1966C88.7486 81.3674 88.2517 81.6158 87.7547 81.7555C87.2577 81.8952 86.2948 82.2057 85.6115 82.4385C84.9282 82.6714 83.2509 83.2613 81.8842 83.758C80.5175 84.2548 78.949 84.7826 78.3899 84.9378C77.6289 85.1551 76.8368 85.2328 75.1285 85.2172C73.1251 85.2172 72.7834 85.1707 71.9448 84.8447C71.4323 84.6429 70.516 84.0685 69.9258 83.5873C69.3201 83.106 68.5281 82.3764 68.1398 81.9728C67.7516 81.5692 67.1148 81.0724 66.6955 80.8706C66.2917 80.6688 65.4531 80.4204 64.8318 80.3428C64.2262 80.2497 63.1546 80.2186 62.4712 80.2807C61.7102 80.3428 60.592 80.5912 59.5981 80.9172C58.6973 81.2277 57.222 81.802 56.2901 82.2212C54.9701 82.8266 54.5663 82.9508 54.3178 82.8266C54.1469 82.749 54.0072 82.5472 54.0072 82.3919C54.0072 82.2522 54.3333 81.802 54.7371 81.4139C55.1564 81.0103 55.964 80.4049 56.5697 80.0634C57.1598 79.7063 58.1072 79.2562 58.6663 79.0388C59.2254 78.837 60.2349 78.5576 60.9182 78.4179C61.6015 78.2937 62.4091 78.154 62.7042 78.1229C62.9993 78.0919 63.7292 78.0453 64.3349 78.0453V78.0453ZM5.3971 56.2812C5.49028 56.2812 6.15808 56.7469 6.88801 57.3368C7.63347 57.9112 8.48764 58.5632 8.79825 58.796C9.10886 59.0289 9.86985 59.5877 10.5066 60.0379C11.1433 60.4881 12.7274 61.5592 14.032 62.413C15.3365 63.2668 17.2313 64.4932 18.2252 65.1297C19.2191 65.7661 20.5703 66.6355 21.2226 67.0546C21.8748 67.4737 23.2726 68.3896 24.3442 69.0882C25.4158 69.7868 26.4563 70.4698 26.6737 70.6095C26.8912 70.7492 27.3415 71.0752 27.6832 71.3236C28.0249 71.572 28.8325 72.0998 29.4692 72.4879C30.1059 72.8915 30.9135 73.4038 31.2707 73.6366C31.6124 73.8695 32.6374 74.537 33.5226 75.1269C34.4079 75.7168 35.8056 76.6327 36.6132 77.176C37.4208 77.7193 38.3681 78.3558 38.7098 78.5887C39.0514 78.8215 39.8124 79.3338 40.4181 79.7219C41.0238 80.11 41.7693 80.6378 42.0954 80.8862C42.406 81.1501 42.903 81.4916 43.1981 81.6623C43.4931 81.8331 44.1299 82.2057 44.6269 82.5006C45.1394 82.7956 45.714 83.1837 45.9314 83.3855C46.1488 83.5873 46.7856 84.053 47.3602 84.41C47.9348 84.7826 48.8822 85.4035 49.4568 85.7916C50.047 86.1797 51.2117 86.9714 52.0659 87.5303C52.9201 88.0891 54.178 88.9585 54.8614 89.4552C55.5447 89.9364 56.4921 90.5884 56.9735 90.8989C57.455 91.1939 58.8993 92.1563 60.1883 93.0412C61.4929 93.9105 62.5955 94.6246 62.6732 94.6246C62.7353 94.6246 63.2167 94.8885 63.7448 95.2145C64.2728 95.525 64.7542 95.8975 64.8008 96.0217C64.8474 96.1459 64.7542 96.3788 64.6145 96.534C64.4592 96.6892 64.2107 96.8445 64.0709 96.8755C63.9156 96.9221 63.3876 96.6892 62.9061 96.3632C62.4092 96.0372 61.1978 95.2145 60.2194 94.547C59.2409 93.8795 57.7345 92.8549 56.8803 92.2805C56.0262 91.7217 53.8674 90.2935 52.0659 89.1137C50.2644 87.9339 48.556 86.8162 48.261 86.6299C47.9659 86.4436 47.5466 86.1797 47.3291 86.04C47.1117 85.8848 46.242 85.3104 45.3878 84.7516C44.5337 84.1772 43.695 83.6183 43.5242 83.5097C43.3534 83.3855 42.3439 82.7024 41.2723 81.9883C40.2007 81.2587 39.0825 80.5136 38.7874 80.2963C38.4924 80.0945 36.9859 79.1009 35.4484 78.0919C33.9109 77.0829 32.4355 76.1204 32.187 75.9341C31.9385 75.7634 30.9912 75.1269 30.0904 74.537C29.1897 73.9471 27.7764 73.0002 26.9377 72.4413C26.0991 71.8825 25.1517 71.246 24.8101 71.0287C24.4839 70.8113 23.7695 70.3456 23.226 69.9886C22.6824 69.6315 21.937 69.1193 21.5487 68.8553C21.1604 68.5914 19.1104 67.2409 16.9672 65.8282C14.8396 64.4311 12.774 63.065 12.3858 62.8011C11.9975 62.5372 11.2365 62.0249 10.6774 61.6524C10.1183 61.2798 9.00015 60.5657 8.19257 60.069C7.38499 59.5877 6.54634 59.0444 6.32892 58.8892C6.11149 58.7339 5.83195 58.5942 5.7077 58.6097C5.58346 58.6097 5.38157 58.7495 5.28838 58.9202C5.11755 59.1841 5.13308 59.2617 5.44369 59.4791C5.63005 59.6033 6.48422 60.2242 7.33839 60.8296C8.19257 61.4351 10.1183 62.7701 11.6093 63.7791C13.1002 64.7882 15.0259 66.0766 15.8801 66.6355C16.7343 67.1943 17.604 67.7687 17.8059 67.9084C18.0078 68.0481 18.9551 68.6846 19.918 69.3211C20.8809 69.9575 23.226 71.5254 25.1362 72.7984C27.0465 74.0558 28.8635 75.2666 29.1586 75.4684C29.4537 75.6702 30.401 76.2912 31.2552 76.8655C32.1094 77.4244 32.9791 78.0143 33.1965 78.1695C33.4139 78.3092 34.6408 79.132 35.9143 79.9858C37.2033 80.8396 41.4587 83.6804 45.3878 86.2884C49.317 88.8964 53.5102 91.6906 54.7061 92.4978C55.9019 93.3051 57.7966 94.547 58.8993 95.2766C60.0019 96.0062 61.2599 96.7979 61.6792 97.0463C62.1141 97.2947 62.6421 97.6672 62.8751 97.8845C63.2633 98.2416 63.2789 98.3347 63.1546 98.8936C63.077 99.2351 62.9682 99.5611 62.9061 99.6232C62.8285 99.6853 62.5334 99.5766 62.2383 99.3748C61.9432 99.173 60.9648 98.5365 60.0641 97.9466C59.1633 97.3567 57.7966 96.4409 57.0356 95.9286C56.2746 95.4008 54.4887 94.221 53.0754 93.3051C51.6621 92.3737 49.6121 91.0231 48.5095 90.2935C47.4223 89.5639 45.7606 88.4772 44.8443 87.8718C43.928 87.2664 42.9962 86.6454 42.8098 86.4592C42.6079 86.2729 42.3284 86.1021 42.2041 86.0555C42.0799 86.009 39.8124 84.5342 37.1567 82.7801C34.501 81.0104 32.0938 79.3959 31.7988 79.1786C31.5037 78.9612 30.6184 78.3248 29.8575 77.7659C29.0965 77.1915 28.3199 76.6637 28.1491 76.5706C27.9783 76.4775 26.9533 75.8255 25.8661 75.1114C24.7635 74.4128 23.8783 73.7453 23.8783 73.6677C23.8783 73.5901 23.6142 73.4038 23.3036 73.2485C22.9775 73.1088 22.2942 72.7207 21.7817 72.3792C21.2692 72.0377 20.6324 71.572 20.3839 71.3391C20.1354 71.1063 19.0017 70.3146 17.8991 69.5694C16.7809 68.8243 15.8335 68.2344 15.7714 68.2344C15.6937 68.2344 15.1191 67.8618 14.4668 67.4117C13.8146 66.977 13.0846 66.4647 12.8517 66.2939C12.6187 66.1232 12.013 65.6885 11.5161 65.347C11.0036 64.99 10.3513 64.5863 10.0562 64.4622C9.76114 64.3224 9.2331 64.012 8.89143 63.7636C8.54976 63.4997 7.46264 62.7856 6.48422 62.1491C5.50581 61.5127 4.37209 60.8141 3.9683 60.5813C3.54898 60.3484 3.19178 60.1155 3.16072 60.0379C3.11413 59.9758 3.28496 59.5101 3.50239 58.9978C3.73534 58.47 4.13913 57.7404 4.41868 57.3679C4.69823 56.9798 4.99331 56.5762 5.08649 56.4675C5.17967 56.3743 5.31944 56.2812 5.3971 56.2812V56.2812ZM43.2757 71.603C43.3378 71.6341 43.3534 71.9446 43.3223 72.3171C43.3068 72.6742 43.167 73.3883 43.0428 73.9005C42.9185 74.4128 42.7321 75.6081 42.6545 76.5395C42.5613 77.471 42.406 78.4024 42.3128 78.6042C42.1265 78.9457 42.1109 78.9457 40.4181 77.8435C39.4708 77.2226 38.57 76.6327 38.3992 76.5085C38.2283 76.3998 37.6382 76.0117 36.1162 74.9872L36.5666 74.6457C36.7995 74.4439 37.0946 74.2886 37.1878 74.2886C37.2965 74.2886 38.1041 73.9316 38.9738 73.4969C39.859 73.0623 40.9927 72.5034 41.5052 72.2395C42.0178 71.9601 42.6079 71.6962 42.8098 71.6496C43.0117 71.5875 43.2291 71.572 43.2757 71.603V71.603ZM19.3279 72.8449C19.4832 72.8915 19.8869 73.1243 20.2286 73.3572C20.5703 73.5901 21.7661 74.3662 22.8688 75.0959C23.9714 75.8255 25.0586 76.524 25.276 76.6482C25.4934 76.7879 25.8196 77.0208 26.0059 77.176C26.3476 77.4554 26.3476 77.4865 26.0836 77.7349C25.9438 77.8746 25.3381 78.2006 24.7324 78.4645C24.1267 78.7129 23.3192 79.1009 22.8998 79.3183C22.4961 79.5356 22.0612 79.6908 21.937 79.6443C21.8127 79.5977 21.5642 79.2407 21.3779 78.8215C21.207 78.4179 20.6169 76.9587 20.0578 75.5616C19.5142 74.18 19.0638 72.9846 19.0638 72.8915C19.0483 72.8139 19.1725 72.7828 19.3279 72.8449V72.8449ZM65.655 95.8665C65.7327 95.8665 66.3849 96.5495 67.0838 97.3723C67.7671 98.2105 68.6213 99.173 69.5687 100.135L69.1338 101.051C68.699 101.905 68.6524 101.952 68.2175 101.874C67.9535 101.812 66.913 101.595 65.888 101.377C64.8629 101.16 63.9777 100.896 63.9311 100.787C63.869 100.694 63.9311 100.213 64.0554 99.7474C64.1951 99.2817 64.3815 98.7539 64.4902 98.5831C64.5989 98.4124 64.7387 98.1019 64.8008 97.8845C64.8629 97.6672 65.0648 97.3412 65.2512 97.1394C65.4531 96.9066 65.5618 96.6116 65.5308 96.3167C65.5152 96.0683 65.5618 95.8665 65.655 95.8665V95.8665Z" fill="#283755"/>
</svg>
