<svg width="120" height="120" viewBox="0 0 120 120" fill="none" xmlns="http://www.w3.org/2000/svg">
<g clip-path="url(#clip0_3272_104136)">
<path d="M45.4021 75.1058C38.5806 65.6999 29.94 87.3334 23.5732 98.6206C26.7566 100.973 68.1406 98.6206 75.4169 98.6206C82.6932 98.6206 102.703 98.6206 104.068 96.2681C105.432 91.5651 112.708 37.482 109.525 29.9573C106.342 22.4327 91.7887 59.1155 86.7859 67.1105C81.7837 75.1055 84.5123 63.3483 78.6003 54.4128C72.6883 45.4772 64.0477 78.3977 57.6809 84.9818C51.3141 91.566 52.2237 84.5116 45.4021 75.1058Z" fill="#CFD1A9"/>
<path d="M118.071 8.52665C117.823 8.40269 117.203 8.26324 116.723 8.21676C116.15 8.17027 115.514 8.23225 114.972 8.3872C114.507 8.51116 113.701 8.79006 113.19 8.99149C112.678 9.17743 111.315 9.67326 110.169 10.0761C109.022 10.4635 107.549 10.9903 106.915 11.2227C106.279 11.4706 105.024 11.9355 104.125 12.2454C103.227 12.5708 101.972 13.0976 101.336 13.423C100.701 13.7329 99.9885 14.1822 99.7563 14.3991C99.5076 14.6161 99.322 14.9105 99.322 15.0344C99.322 15.1584 99.4308 15.5148 99.5542 15.8092C99.7407 16.2275 99.8953 16.367 100.298 16.4444C100.655 16.5064 101.289 16.367 102.654 15.8866C103.676 15.5302 106.403 14.5851 108.697 13.7639C111.005 12.9581 113.561 12.0749 114.383 11.8115C115.22 11.5326 115.932 11.3467 115.979 11.3932C116.025 11.4397 115.499 12.4158 114.801 13.5624C114.104 14.709 112.865 16.7698 112.058 18.1333C111.237 19.4969 110.091 21.4182 109.502 22.3944C108.913 23.3706 107.441 26.2061 106.217 28.6698C105.009 31.1334 103.134 35.0381 102.065 37.3468C101.011 39.6555 99.8176 42.2276 99.4308 43.0798C99.0587 43.932 98.6866 44.7998 98.6245 45.0166C98.5476 45.2336 97.9122 46.6901 97.1991 48.2705C96.4869 49.851 95.2006 52.5006 94.333 54.1585C93.4809 55.8164 92.4889 57.5983 92.1479 58.1097C91.7914 58.621 91.1871 59.3647 90.8003 59.7521C90.4127 60.1395 89.8394 60.5424 89.5295 60.6353C89.0495 60.7902 88.8786 60.7748 88.5531 60.5888C88.3364 60.4649 88.0265 60.062 87.8711 59.7057C87.701 59.3337 87.4999 58.59 87.4066 58.0322C87.3134 57.4744 87.2366 56.3122 87.2366 55.4446C87.2366 54.4684 87.1122 53.2289 86.9266 52.2682C86.7091 51.1526 86.4458 50.3779 86.0741 49.7116C85.7332 49.1072 85.2838 48.5495 84.881 48.2551C84.5091 48.0071 84.0443 47.7592 83.8273 47.7127C83.6104 47.6663 83.1765 47.5732 82.8666 47.4958C82.3864 47.3718 82.0919 47.4028 81.3172 47.6972C80.7749 47.8832 79.8917 48.3635 79.3339 48.7354C78.7761 49.1072 77.7224 50.0214 76.9942 50.7497C76.266 51.478 75.1349 52.764 74.4995 53.6162C73.8642 54.4684 72.8881 55.863 72.3613 56.7152C71.819 57.5673 70.7653 59.5197 70.0216 61.0536C69.3231 62.4943 68.4469 64.3724 67.9835 65.3657L67.8988 65.5472C67.4805 66.4768 66.7212 68.0882 66.2409 69.1109C65.7451 70.1336 64.9393 71.838 64.428 72.9071C63.9322 73.9762 63.1885 75.4017 62.8011 76.0835C62.3982 76.7653 61.7164 77.8035 61.2671 78.4077C60.8333 79.012 60.1824 79.7558 59.826 80.0811C59.4852 80.3911 59.0049 80.7009 58.7725 80.7474C58.5245 80.7939 58.1372 80.7474 57.8892 80.6235C57.6414 80.515 57.2694 80.2051 57.0525 79.9572C56.8356 79.7093 56.4637 79.0585 56.2313 78.5317C55.9834 77.9893 55.565 76.8738 55.3016 76.0525C55.0382 75.2158 54.6508 74.0227 54.4494 73.4185C54.248 72.7986 53.9381 71.9929 53.7677 71.6365C53.6127 71.2647 53.0704 70.4899 52.5746 69.8856C52.0013 69.2193 51.366 68.6461 50.9012 68.3827C50.4673 68.1502 49.8475 67.9333 49.5066 67.8868C49.1657 67.8404 48.2206 67.7938 47.4148 67.7784C46.2218 67.7784 45.6949 67.8404 44.6258 68.1812C43.8976 68.4137 42.6889 68.9249 41.9142 69.3123C41.155 69.6842 40.0703 70.3195 39.5125 70.7069C38.9548 71.0943 37.9165 71.9154 37.1883 72.5198C36.4601 73.1395 35.236 74.3016 34.4768 75.0918C33.702 75.8975 32.6949 76.9977 32.2456 77.5555C31.7807 78.1133 31.0369 79.043 30.6031 79.6473C30.1692 80.2516 29.4255 81.2898 28.9607 81.9715C28.4958 82.6533 27.5972 84.0478 26.9618 85.0705C26.3421 86.0931 25.2884 88.0144 24.6376 89.3315C23.9869 90.6486 23.2121 92.3065 22.9178 93.0038C22.6233 93.701 22.3444 94.2897 22.2824 94.2897C22.205 94.2897 22.112 93.7475 22.05 93.0967C21.9881 92.4304 21.9261 91.8107 21.9261 91.7331C21.9105 91.6557 21.8485 91.1598 21.7866 90.6486C21.7247 90.1372 21.5852 88.8046 21.4612 87.7045C21.3373 86.6044 21.1203 84.5436 20.9964 83.1336C20.857 81.7236 20.578 79.26 20.3766 77.633C20.1752 76.0061 19.8963 73.8833 19.7723 72.9071C19.6483 71.9309 19.4934 70.6449 19.4469 70.0406C19.3849 69.4363 19.2145 68.1502 19.0441 67.1741C18.8736 66.1979 18.7496 65.1752 18.7496 64.9273C18.7496 64.6794 18.6257 63.6258 18.4552 62.6031C18.2848 61.5805 18.0369 59.9071 17.8974 58.8844C17.7735 57.8617 17.5255 56.2658 17.3551 55.3206C17.2001 54.3754 17.0297 53.2753 16.9833 52.8415C16.9367 52.4231 16.7663 50.9821 16.5959 49.665C16.4254 48.348 16.2085 46.814 16.1156 46.2562C16.0226 45.6985 15.8832 44.5208 15.8056 43.6221C15.7127 42.7234 15.5422 41.2359 15.4183 40.2908C15.2789 39.3456 15.1084 37.9976 15.0309 37.2693C14.9535 36.5411 14.783 35.1465 14.6591 34.1704C14.5196 33.1942 14.3492 31.6292 14.2562 30.684C14.1632 29.7389 14.0238 28.7008 13.9308 28.3598C13.8378 28.019 13.8224 27.6781 13.8998 27.6161C13.9618 27.5541 14.1477 27.6781 14.3027 27.895C14.4421 28.1119 15.2479 29.0261 16.069 29.9558C16.8903 30.87 17.6495 31.6912 17.727 31.7687C17.82 31.8617 18.4398 32.4349 19.106 33.0548C20.1132 33.9999 20.3301 34.1394 20.5316 33.9844C20.671 33.876 20.7794 33.659 20.764 33.5196C20.764 33.3646 20.3611 32.6209 19.8807 31.8617C19.3849 31.1179 18.9201 30.3897 18.8271 30.2502C18.7496 30.1107 17.9749 28.9796 17.1227 27.7091C16.2705 26.454 15.1549 24.982 14.6435 24.4397C14.0392 23.8044 13.497 23.3861 13.0941 23.2621C12.6447 23.1071 12.3503 23.0917 12.0095 23.2156C11.7616 23.2931 11.4206 23.479 11.2502 23.6185C11.0953 23.758 10.8009 24.2228 10.6149 24.6411C10.4135 25.075 10.1037 25.772 9.91778 26.1904C9.71629 26.6242 9.37537 27.4457 9.14296 28.05C8.91056 28.6542 8.44568 29.7234 8.13578 30.4516C7.82589 31.1799 7.05116 33.0238 6.43137 34.5577C5.81158 36.0917 4.77344 38.6173 4.12266 40.1668C3.44089 41.8247 2.97605 43.1263 3.02253 43.3123C3.06902 43.4827 3.17748 43.6221 3.25495 43.6221C3.34792 43.6221 3.71979 43.1573 4.09167 42.584C4.46354 41.9952 5.1918 40.6626 5.70312 39.5935C6.21444 38.5244 7.00467 36.7889 7.43852 35.7198C7.88787 34.6507 8.41469 33.3646 8.63162 32.8533C8.84858 32.342 9.31338 31.2884 9.68529 30.5291C10.0417 29.7699 10.5065 28.7628 10.7079 28.3134C10.9093 27.864 11.1262 27.4921 11.2038 27.5077C11.2657 27.5077 11.3432 27.7401 11.3896 28.0035C11.4206 28.2824 11.5292 29.491 11.6221 30.684C11.715 31.8771 11.87 33.4112 11.9475 34.0929C12.0404 34.7747 12.1799 35.8903 12.2419 36.5721C12.3193 37.2538 12.5517 39.3766 12.7687 41.2979C12.9856 43.2193 13.342 46.1477 13.559 47.8057C13.7758 49.4636 14.1012 51.8034 14.2717 52.9964C14.4421 54.1895 14.7211 56.0024 14.8759 57.0251C15.0309 58.0477 15.4648 61.1156 15.8676 63.8427C16.255 66.5697 16.8438 70.8618 17.1847 73.3719C17.5255 75.8821 17.9129 78.95 18.0524 80.1896C18.2074 81.4292 18.6567 85.2253 19.0905 88.6342C19.5089 92.0431 19.9273 95.4986 20.0047 96.3041C20.0977 97.1096 20.1442 97.7916 20.1132 97.7916C20.0822 97.8071 15.6972 97.8382 10.3671 97.8693C0.915255 97.9314 0.651847 97.9461 0.326459 98.2405C0.140523 98.4114 -0.0144248 98.7058 0.00106993 98.8914C0.00106993 99.2014 0.109533 99.2635 0.977232 99.4034C1.50406 99.4802 2.85209 99.6201 3.95221 99.6978C5.06783 99.7901 7.43852 99.8989 9.2204 99.9611C11.0178 100.023 14.3027 100.053 16.5494 100.038L20.609 100.023C20.7174 100.689 21.0274 102.347 21.3837 104.129C21.7247 105.911 22.081 107.693 22.1585 108.08C22.2359 108.467 22.4219 108.824 22.5458 108.886C22.6853 108.964 22.8712 108.902 23.0262 108.746C23.2431 108.514 23.2741 108.235 23.1812 106.918C23.1346 106.066 23.0572 104.702 23.0262 103.897C22.9952 103.091 22.9178 101.944 22.8558 101.34L22.7473 100.255C25.9547 100.069 31.0369 100.023 36.1037 100.023C41.1704 100.023 45.571 99.9922 45.8654 99.9611C46.1598 99.9145 51.1491 99.8368 56.9441 99.7901C63.7462 99.7133 70.4245 99.7435 75.7702 99.8678H75.788C80.3415 99.9611 86.4035 100.085 89.2507 100.131C92.9689 100.193 96.0216 100.147 100.02 99.9455C103.087 99.8057 106.14 99.7133 106.806 99.7435L108.015 99.7901C106.403 102.192 105.04 104.067 103.955 105.523C102.855 106.98 101.662 108.576 101.275 109.087C100.887 109.598 100.5 110.265 100.406 110.559C100.33 110.853 100.298 111.257 100.329 111.442C100.376 111.69 100.515 111.799 100.763 111.799C100.98 111.799 101.414 111.458 101.956 110.885C102.421 110.389 104.203 108.498 105.892 106.67C107.596 104.841 109.254 102.998 109.595 102.579C109.92 102.145 110.463 101.324 110.788 100.72C111.113 100.116 111.423 99.3878 111.485 99.0935C111.532 98.7991 111.516 98.3648 111.423 98.1171C111.331 97.8848 110.896 97.4817 110.447 97.1873C109.998 96.8929 109.285 96.4742 108.851 96.2264C108.433 95.9942 107.348 95.3743 106.45 94.8322C105.551 94.3053 104.234 93.5615 103.506 93.1586C102.777 92.7713 101.492 92.0895 100.639 91.6247C99.7865 91.1754 98.5632 90.571 97.9278 90.2766C97.2147 89.9668 96.5793 89.7963 96.3004 89.8273C95.9283 89.8583 95.836 89.9513 95.8049 90.2922C95.7738 90.633 95.9439 90.912 96.6104 91.5782C97.0757 92.0431 97.6947 92.5544 97.9744 92.6938C98.2377 92.8333 98.7799 93.1742 99.1675 93.4376C99.5543 93.7165 100.283 94.1659 100.794 94.4447C101.305 94.7389 102.235 95.3122 102.855 95.7153C103.459 96.1185 104.017 96.4586 104.094 96.4586C104.157 96.4586 104.482 96.6451 104.823 96.8773C105.163 97.1251 105.628 97.404 105.876 97.5127C106.108 97.606 106.295 97.776 106.295 97.8537C106.295 97.9461 105.737 97.9772 104.792 97.9314C103.955 97.8848 102.127 97.8227 100.716 97.776C99.3151 97.7303 96.3833 97.6681 94.1715 97.6224L94.1309 97.6215C91.9157 97.5749 87.2823 97.4661 83.8273 97.3573C79.5818 97.2494 72.9036 97.2183 63.2195 97.296C55.3326 97.3573 47.6008 97.4661 46.0203 97.5438C44.4399 97.6215 38.7068 97.745 33.2681 97.8071C24.5447 97.9159 23.3981 97.9004 23.3981 97.6983C23.3981 97.5749 23.6305 96.8773 23.9094 96.1496C24.2037 95.4209 24.9166 93.8869 25.4898 92.7403C26.0631 91.5937 26.9773 89.8738 27.5042 88.9441C28.031 88.0144 28.9761 86.465 29.596 85.5353C30.2157 84.6056 31.1144 83.304 31.5793 82.6687C32.0441 82.0335 32.9583 80.8869 33.5935 80.1121C34.2288 79.3374 35.3289 78.1289 36.0107 77.4316C36.708 76.7188 38.0715 75.4947 39.0477 74.7045C40.0239 73.9143 41.3719 72.9536 42.0382 72.5507C42.6889 72.1478 43.8046 71.6055 44.5173 71.3421C45.2766 71.0633 46.2218 70.8308 46.8725 70.7843C47.6163 70.7223 48.2206 70.7843 48.8094 70.9548C49.4137 71.1253 49.8475 71.3887 50.3124 71.8535C50.6687 72.2254 51.1336 72.9071 51.335 73.3719C51.5519 73.8368 51.9393 75.0299 52.2182 76.0061C52.4971 76.9822 53.0549 78.5162 53.4423 79.4148C53.8451 80.3135 54.3719 81.3052 54.6199 81.6461C54.8833 81.9715 55.4411 82.4673 55.8594 82.7307C56.2933 83.0097 56.9286 83.3505 57.3004 83.49C57.8428 83.7069 58.0752 83.7224 58.6949 83.583C59.0978 83.4745 59.7796 83.2421 60.198 83.0406C60.6783 82.8237 61.3601 82.2814 62.0264 81.5996C62.5996 80.9953 63.4053 79.9882 63.8082 79.3838C64.2266 78.7641 64.7379 77.9429 64.9548 77.5555C65.1717 77.1682 65.5591 76.4709 65.8225 76.0061C66.0859 75.5412 66.9226 73.8368 67.6819 72.2098C68.4411 70.5829 69.2934 68.7855 69.5722 68.1812C69.8357 67.577 70.3625 66.3993 70.7343 65.5472C71.1062 64.6949 71.6485 63.4398 71.9584 62.7581C72.2838 62.0763 72.6867 61.2086 72.8726 60.8212C73.0586 60.4339 73.6164 59.4267 74.1277 58.5745C74.639 57.7223 75.5377 56.3588 76.1265 55.5531C76.7308 54.7473 77.8154 53.4768 78.5436 52.7485C79.2719 52.0202 80.31 51.168 80.8524 50.8581C81.3792 50.5327 81.9835 50.2693 82.1849 50.2539C82.3864 50.2229 82.7118 50.3003 82.9132 50.4088C83.1146 50.5017 83.409 50.8427 83.5639 51.1371C83.7034 51.4314 83.9049 52.0048 83.9978 52.4231C84.0753 52.8259 84.2147 54.3754 84.2922 55.863C84.3697 57.3505 84.5556 58.9929 84.6796 59.5042C84.819 60.0155 85.0514 60.7128 85.2218 61.0536C85.3768 61.3946 85.8417 62.0453 86.2601 62.4947C86.7557 63.0422 87.2365 63.3986 87.701 63.5638C88.3519 63.7962 88.4909 63.7962 89.5606 63.5483C90.2426 63.3934 91.0325 63.0834 91.4814 62.7891C91.9002 62.5102 92.6279 61.8749 93.0932 61.3636C93.5577 60.8522 94.2242 60.0155 94.5652 59.5042C94.8907 58.9929 95.495 57.9857 95.8826 57.2575C96.2694 56.5292 97.2924 54.5149 98.16 52.764C99.0276 51.0131 100.221 48.5029 100.794 47.1859C101.367 45.8689 102.328 43.6996 102.932 42.3826C103.521 41.0655 104.498 39.0357 105.071 37.8891C105.644 36.7425 107.007 33.9535 108.077 31.6912C109.161 29.429 110.633 26.299 111.362 24.7186C112.074 23.1381 113.376 20.4266 114.228 18.6757C115.08 16.9248 115.855 15.3288 115.932 15.1119L116.103 14.7245C116.289 15.3288 116.335 16.8628 116.351 18.5207C116.366 20.2251 116.46 22.2085 116.599 23.0917C116.707 23.9438 116.924 25.8962 117.048 27.4301C117.187 28.9642 117.327 30.6066 117.358 31.0714C117.388 31.5363 117.482 32.0786 117.591 32.28C117.683 32.4659 117.854 32.6209 117.963 32.6209C118.055 32.6209 118.226 32.5589 118.303 32.4969C118.396 32.4349 118.597 32.1715 118.768 31.9237C118.985 31.5673 119.078 31.1179 119.125 29.9868C119.14 29.1811 119.279 26.5314 119.419 24.0988C119.542 21.6662 119.682 18.7841 119.729 17.6685C119.775 16.5529 119.729 14.7555 119.62 13.6399C119.527 12.5243 119.341 11.1298 119.217 10.541C119.094 9.95217 118.892 9.30139 118.768 9.11545C118.644 8.91402 118.334 8.65061 118.071 8.52665Z" fill="#283755"/>
</g>
<defs>
<clipPath id="clip0_3272_104136">
<rect width="120" height="103.597" fill="white" transform="translate(0 8.20166)"/>
</clipPath>
</defs>
</svg>
