<svg width="120" height="120" viewBox="0 0 120 120" fill="none" xmlns="http://www.w3.org/2000/svg">
<g clip-path="url(#clip0_3272_104138)">
<path d="M64.1232 65.8708C72.1125 64.3231 76.9649 54.6838 74.9612 44.3408C72.9576 33.9978 64.8567 26.8677 56.8673 28.4154C48.878 29.9631 44.0256 39.6024 46.0293 49.9454C48.0329 60.2885 56.1338 67.4185 64.1232 65.8708Z" fill="#F68F78"/>
<path fill-rule="evenodd" clip-rule="evenodd" d="M60.1814 0.419573C59.5751 0.548248 58.3256 0.879125 57.4253 1.15486C56.5249 1.43059 55.5143 1.77985 55.2203 1.9269C54.9263 2.09235 52.5927 2.88277 50.0755 3.6732C48.7258 4.10371 46.9493 4.66442 45.2169 5.21119L45.213 5.21241L45.2118 5.21281C43.6913 5.69267 42.2051 6.16175 41.0721 6.52243C38.6467 7.29447 36.4969 7.93785 36.2948 7.95623C36.0926 7.97462 35.4679 8.14006 34.9166 8.32388C34.3654 8.5077 33.2814 8.96725 32.528 9.35327C31.7746 9.73929 30.8007 10.2724 30.3965 10.5665C29.9739 10.8422 29.2758 11.4121 28.8347 11.8165C28.2835 12.3128 27.6955 13.1951 26.9973 14.5737C26.4277 15.6951 25.7479 17.2024 25.4723 17.9377C25.0496 19.0958 24.9945 19.537 24.9945 21.559C24.9945 23.0111 25.1047 24.2428 25.2701 24.9229C25.4171 25.4928 25.5824 26.1729 25.6376 26.4302C25.6927 26.6876 25.803 27.092 25.8948 27.3494C26.0051 27.6067 26.2439 28.3971 26.446 29.0956C26.6482 29.7942 26.9973 31.0442 27.1995 31.853C27.4199 32.6618 27.7507 33.9118 27.9344 34.6103C28.1181 35.3088 28.7979 37.8087 29.4594 40.1249C30.1209 42.441 31.2601 46.5035 31.9767 49.1322C32.7117 51.7608 33.5018 54.7019 33.7406 55.6578C33.9796 56.6136 34.2735 57.6615 34.3654 57.9555C34.4573 58.2497 34.5676 58.7827 34.6227 59.1136C34.7145 59.5548 34.6594 59.7019 34.4573 59.7019C34.3103 59.7019 33.5385 59.5731 32.7669 59.4077C31.9584 59.2423 30.9294 59.1504 30.415 59.2055C29.9188 59.2607 29.1287 59.4445 28.6878 59.6467C28.2284 59.8305 27.7874 60.1798 27.6587 60.4371C27.5302 60.6945 27.3831 61.2092 27.3096 61.5952C27.2178 62.1283 27.328 62.6062 27.8608 63.893C28.2284 64.7753 28.8531 66.4849 29.239 67.698C29.6432 68.9112 30.1209 70.8047 30.3047 71.9259C30.5068 73.0473 30.7457 74.7384 30.8559 75.6943C30.9662 76.6501 31.1315 78.8928 31.2418 80.6574C31.3521 82.4221 31.5725 84.9588 31.7195 86.2639C31.8481 87.5691 32.0135 89.0213 32.0686 89.4808C32.0909 89.62 32.1182 89.7927 32.1479 89.9814C32.2166 90.4157 32.2986 90.9346 32.3626 91.319C32.4728 91.8705 32.7301 93.0653 32.9322 93.9845C33.1527 94.9035 33.6856 96.6682 34.1265 97.9366C34.5859 99.2054 35.3577 101.062 35.8354 102.072C36.3315 103.084 37.2319 104.646 37.8382 105.565C38.4445 106.485 39.7124 108.029 40.6495 109.003C41.6417 110.05 42.5052 110.804 42.7258 110.804C43.0565 110.823 43.0749 110.786 42.8176 110.473C42.7133 110.33 42.4053 109.927 42.0448 109.455L42.0416 109.451L41.8215 109.163L41.5866 108.856C41.0537 108.157 40.3371 107.036 39.9696 106.356C39.6204 105.657 39.106 104.756 38.8303 104.334C38.5732 103.892 38.0587 102.918 37.7279 102.165C37.3788 101.411 36.7725 99.9958 36.4049 99.0396C36.0191 98.0836 35.5413 96.7234 35.3209 96.0064C35.1188 95.2896 34.7697 93.9845 34.5491 93.0653C34.347 92.1462 34.0163 90.1794 33.8141 88.6536C33.6305 87.1463 33.3732 84.6096 33.2813 83.0471C33.1711 81.4847 32.9873 78.7457 32.8955 76.981C32.7852 75.2163 32.5831 73.0105 32.4361 72.1098C32.3075 71.2091 31.9767 69.6282 31.7378 68.6172C31.4807 67.6061 31.1131 66.3194 30.911 65.7679C30.7089 65.2164 30.2495 64.1135 29.8821 63.3415C29.5146 62.551 29.2206 61.7423 29.2206 61.5401C29.2206 61.2827 29.3859 61.1356 29.827 61.0253C30.1394 60.9334 30.911 60.9151 31.5174 61.007C32.1237 61.0805 32.9322 61.2644 33.3181 61.4298C33.6856 61.5952 34.6043 62.1283 35.3392 62.643C36.0559 63.1393 37.0113 63.9113 37.434 64.3342C37.8565 64.7753 38.5547 65.5474 38.9774 66.0436C39.4 66.5583 39.841 67.165 39.9696 67.4223C40.0982 67.6797 40.4289 68.5436 40.7046 69.3525C40.9802 70.1612 41.2742 70.8966 41.366 71.0069C41.4579 71.1172 41.6049 71.7053 41.7152 72.3487C41.807 72.9737 42.0091 73.6723 42.1561 73.9112C42.3031 74.1318 42.5603 74.8854 42.7258 75.6024C42.8727 76.3193 43.2218 77.5876 43.4607 78.4516C43.594 78.9336 43.8131 79.7018 44.0445 80.5133L44.0452 80.5156C44.2283 81.158 44.4193 81.8275 44.5815 82.4037C44.949 83.7088 45.2981 84.8853 45.3349 84.9773C45.3901 85.0692 45.2798 85.3081 45.1144 85.492C44.9123 85.6941 44.5448 85.8045 43.9568 85.8045C43.4791 85.8045 42.5971 85.9699 41.9908 86.1536C41.3844 86.3559 40.7597 86.65 40.6127 86.8154C40.4657 86.9625 40.3739 87.1279 40.4289 87.1647C40.4841 87.2014 42.1378 87.275 44.1038 87.3485C46.0699 87.4036 48.3483 87.5691 49.1568 87.7161C49.9652 87.8632 51.4168 88.1574 52.3723 88.3779C53.6033 88.6721 54.8712 89.1683 56.6903 90.0507C58.1051 90.7493 59.6852 91.5764 60.1814 91.8705C60.6775 92.1647 62.0372 93.2676 63.1764 94.3337C64.977 96.0432 65.3078 96.2822 65.8774 96.2822C66.447 96.2822 66.5021 96.2271 66.447 95.8778C66.3943 95.6491 66.3247 95.1849 66.2706 94.8232L66.2633 94.7749C66.1714 94.1499 66.2082 94.058 66.5573 94.0028C66.7962 93.9477 67.3841 93.8558 67.8986 93.8006C68.3948 93.7271 70.0484 93.433 71.5735 93.1388C73.0802 92.8263 75.1565 92.3484 76.1671 92.0727C77.1777 91.7786 78.6476 91.3926 79.4193 91.2087C80.8342 90.8595 80.8525 90.8595 81.1281 91.2272C81.2751 91.4294 81.6794 92.0911 82.0284 92.6977C82.3592 93.3044 82.984 94.1131 83.4066 94.4992C83.8108 94.8668 84.4355 95.308 84.7479 95.4734C85.0786 95.6388 85.6483 95.7859 85.9974 95.7859C86.3465 95.7859 87.2652 95.6205 88.0185 95.3999C88.7719 95.1793 89.7089 94.7749 90.0948 94.4992C90.4807 94.205 90.9768 93.6903 91.1789 93.341C91.381 92.9919 91.8587 91.9441 92.2263 91.025C92.5937 90.1058 92.9796 89.2419 93.0899 89.0948C93.2001 88.9478 93.3471 88.6536 93.4206 88.433C93.4757 88.194 93.6227 88.0103 93.7146 88.0103C93.8065 88.0103 93.6594 88.8926 93.3655 89.9955C93.0531 91.0801 92.5754 92.6609 92.263 93.5249C91.969 94.3888 91.4545 95.7124 91.1422 96.466C90.8115 97.2197 90.3153 98.4146 90.0397 99.1314C89.7457 99.848 89.2496 100.914 88.9188 101.521C88.6065 102.128 87.9082 103.285 87.3938 104.095C86.8793 104.904 86.0892 106.117 85.6298 106.778C85.1705 107.44 84.2702 108.727 83.6087 109.61L83.6039 109.616L83.6029 109.617L83.6021 109.618L83.5975 109.625L83.591 109.632C82.9286 110.516 81.8944 111.896 81.2751 112.716C80.6504 113.543 79.4744 115.179 78.666 116.374C77.8392 117.551 77.196 118.671 77.2328 118.856C77.2512 119.021 77.3614 119.168 77.4716 119.168C77.5819 119.168 78.5558 118.139 79.6582 116.87C80.7606 115.602 82.4878 113.745 83.4984 112.716C84.5274 111.686 85.7033 110.363 86.1443 109.774C86.5669 109.186 87.2101 108.286 87.5592 107.771C87.9082 107.275 88.68 106.061 89.268 105.105C89.8559 104.15 90.8115 102.495 91.3627 101.429C91.9323 100.363 92.7775 98.5064 93.2552 97.2932C93.7329 96.08 94.3577 94.3888 94.6333 93.5249C94.9089 92.6609 95.2764 91.4294 95.4234 90.7676C95.5887 90.1058 95.846 89.0029 95.993 88.286C96.14 87.5691 96.3237 86.4661 96.3789 85.8045C96.4268 85.2296 96.5439 84.3222 96.634 83.6238L96.6728 83.3228C96.7831 82.6059 96.9301 81.7787 97.022 81.4847C97.1138 81.1905 97.2608 79.9405 97.3711 78.7273C97.4997 77.2383 97.4997 75.97 97.3894 74.8671C97.2793 73.9663 97.0587 72.8451 96.8934 72.3855C96.7279 71.9259 96.3421 71.1723 96.0298 70.6944C95.6807 70.1797 95.1845 69.7017 94.7619 69.4995C94.3026 69.2789 94.0636 69.04 94.0821 68.801C94.0821 68.5987 94.2842 67.7716 94.5414 66.9628C94.7803 66.1539 95.0927 64.665 95.2029 63.6539C95.3131 62.643 95.3683 61.4113 95.3131 60.8967C95.2764 60.4004 95.0375 59.5365 94.7986 58.9849C94.5047 58.3416 94.0453 57.735 93.439 57.2203C92.9244 56.7791 92.2998 56.3747 92.0058 56.3196C91.5648 56.2276 91.528 56.1541 91.6751 55.7129C91.7485 55.4188 92.1344 54.5732 92.5202 53.8196C92.9061 53.0659 93.3287 52.11 93.4758 51.7056C93.6594 51.1909 93.7329 50.2719 93.7329 48.6726C93.7146 47.4043 93.6411 46.0807 93.5492 45.7315C93.439 45.3822 93.0347 44.6469 92.6305 44.1322C92.2079 43.5992 91.4913 42.9006 90.9952 42.6065C90.5174 42.294 89.6906 41.9264 89.1577 41.7793C88.6432 41.6323 88.0002 41.5035 87.7429 41.5035C87.4857 41.5035 87.1549 41.4668 87.0079 41.4117C86.861 41.3566 86.7323 41.1727 86.7323 41.0073C86.7323 40.8234 86.916 39.8492 87.1733 38.8381C87.4122 37.8272 87.7061 36.4301 87.8164 35.7132C87.9267 35.0147 88.1655 33.6728 88.3309 32.7721C88.533 31.6507 88.6249 30.0699 88.6249 27.9008C88.6249 24.8861 88.6065 24.5921 88.1104 23.1215C87.8348 22.2575 87.4305 21.1913 87.1917 20.7318C86.9712 20.2723 86.6589 19.8127 86.5302 19.6841C86.3833 19.5553 85.9422 19.3531 85.538 19.206C84.9683 19.0038 84.6376 19.0038 84.0864 19.1509C83.6822 19.2796 83.2228 19.5737 82.984 19.9046C82.7451 20.2171 82.2306 21.0443 81.808 21.7428C81.3854 22.4597 80.2645 24.8494 79.2907 27.0736C78.3169 29.2978 77.4349 31.228 77.3063 31.3567C77.1225 31.5405 77.049 31.5037 76.8653 31.1728C76.7366 30.9338 76.2222 29.0588 75.7077 26.9817L75.4372 25.8884C75.0067 24.1479 74.5885 22.4576 74.4215 21.8347C74.2378 21.081 73.8152 19.2245 73.5028 17.6987C73.1904 16.1915 72.7678 14.4083 72.584 13.7466C72.4003 13.0849 72.1063 11.9819 71.941 11.265C71.7756 10.5665 71.5368 9.35327 71.3897 8.59961C71.2244 7.60697 70.8753 6.70625 70.177 5.38274C69.4972 4.09599 68.8357 3.17689 67.9904 2.31293C67.1943 1.50412 66.4409 0.940399 65.7305 0.621776C64.8301 0.21737 64.4442 0.143842 62.9743 0.162223C62.0556 0.180605 60.7878 0.290898 60.1814 0.419573ZM9.76215 7.73565C9.21093 8.25035 8.54945 9.0224 8.27383 9.42681C7.99821 9.83121 7.35511 10.9525 6.84063 11.9084C6.34452 12.8643 5.62792 14.5186 5.24206 15.5848C4.87457 16.6509 4.37847 18.3053 4.1396 19.2612C3.90073 20.2171 3.57 21.9267 3.40463 23.0296C3.23926 24.1508 3.05551 26.1729 3.00039 27.5332C2.94527 28.9486 2.98202 31.0809 3.11064 32.4963C3.23926 33.8566 3.4965 35.897 3.69862 37C3.90073 38.1212 4.36009 39.9778 4.72758 41.1359C5.0767 42.294 5.81167 44.169 6.32615 45.2719C6.859 46.3932 7.61236 47.7902 8.01659 48.3969L8.16993 48.6267C8.55425 49.2024 9.02159 49.9024 9.24767 50.2902C9.52328 50.713 10.295 51.6505 10.9932 52.349C11.7466 53.1578 12.3713 53.6542 12.6102 53.6357C12.8123 53.6357 13.0695 53.5254 13.1981 53.4152C13.3268 53.2865 13.4186 52.9556 13.4186 52.6799C13.4186 52.349 12.9225 51.4483 12.059 50.1983C11.324 49.0954 10.4787 47.7534 10.2031 47.202C9.92752 46.6505 9.41304 45.5293 9.04555 44.7204C8.69644 43.9117 8.18196 42.5513 7.90635 41.6874C7.61236 40.8234 7.17137 39.2609 6.91413 38.1948C6.65689 37.1286 6.30778 35.5661 6.16078 34.7022C6.01379 33.8382 5.84842 32.3125 5.77492 31.3015C5.7198 30.2905 5.6463 29.1324 5.60955 28.728C5.59118 28.3236 5.62792 26.8715 5.7198 25.5111C5.7933 24.1508 5.99541 22.2943 6.16078 21.3752C6.30778 20.4745 6.50989 19.3531 6.62013 18.8935C6.71201 18.4341 6.95088 17.5333 7.13462 16.8716C7.33674 16.2098 7.75935 14.9415 8.09009 14.0223C8.42083 13.1216 9.06393 11.5775 9.52328 10.6217C9.96427 9.66576 10.4787 8.47093 10.6809 7.95623C10.8646 7.45992 11.03 6.98198 11.03 6.90845C11.03 6.81655 10.9565 6.7614 10.883 6.7614C10.8095 6.7614 10.295 7.20257 9.76215 7.73565ZM110.362 12.1842C109.884 11.1731 109.553 10.2356 109.59 10.1253C109.646 9.99669 109.829 9.88636 110.013 9.88636C110.196 9.88636 110.527 10.0702 110.73 10.2907C110.95 10.5297 111.592 11.4672 112.163 12.3679C112.714 13.2871 113.522 14.8495 113.926 15.8605C114.349 16.8716 114.955 18.6913 115.304 19.9046C115.635 21.1362 116.003 23.0847 116.132 24.3163C116.278 25.7501 116.334 27.6251 116.259 29.6471C116.186 31.375 116.058 33.2684 115.947 33.875C115.837 34.4816 115.525 35.7683 115.268 36.7243C115.011 37.6801 114.514 39.3345 114.165 40.4006C113.798 41.4668 112.952 43.4888 112.273 44.9043C111.575 46.3197 110.454 48.3233 109.756 49.3527C109.075 50.3821 108.047 51.7792 107.496 52.4409C106.522 53.6174 106.466 53.6542 105.841 53.5438C105.708 53.5157 105.58 53.4877 105.471 53.4637C105.295 53.4249 105.166 53.3968 105.143 53.3968C105.106 53.3784 105.18 53.0292 105.309 52.6248C105.438 52.2203 105.841 51.5218 106.209 51.0623C106.576 50.6027 107.422 49.4079 108.084 48.3969C108.745 47.3858 109.663 45.8233 110.123 44.9043C110.582 44.0035 111.079 42.9557 111.225 42.6065C111.354 42.2572 111.831 40.9337 112.273 39.6653C112.695 38.397 113.173 36.6691 113.302 35.8051C113.449 34.9411 113.651 33.4154 113.742 32.4045C113.835 31.3934 113.908 29.4081 113.926 27.9927C113.926 26.32 113.798 24.5185 113.54 22.8457C113.339 21.4303 113.008 19.6473 112.787 18.8935C112.585 18.1399 112.144 16.7245 111.814 15.7686C111.482 14.8128 110.821 13.1951 110.362 12.1842ZM18.2327 20.6031C18.1408 20.7134 17.8652 21.1913 17.6448 21.6509C17.4059 22.1104 17.1119 22.809 16.9649 23.2133C16.8179 23.6178 16.5791 24.5736 16.3953 25.3273C16.1932 26.2648 16.1013 27.5331 16.1013 29.2795C16.1013 31.1728 16.2115 32.3493 16.5056 33.7831C16.726 34.8493 17.2221 36.5036 17.608 37.4595C17.9939 38.4154 18.6002 39.7389 18.931 40.4006C19.2617 41.0624 19.6659 41.7793 19.8313 41.9815C19.9967 42.2021 20.4376 42.5881 20.8235 42.8638C21.191 43.1211 21.5768 43.3418 21.6871 43.3418C21.7974 43.3418 21.9627 43.1579 22.073 42.9374C22.2016 42.6984 22.2383 42.2205 22.1648 41.8345C22.1097 41.4484 21.5401 40.2535 20.897 39.1691C20.162 37.9007 19.4455 36.375 18.9677 34.9779C18.4899 33.5993 18.1042 31.9817 17.902 30.6581C17.6815 29.1324 17.6448 27.9376 17.7183 26.3383C17.7734 25.1251 17.902 24.059 17.9755 23.9486C18.0674 23.8568 18.2327 23.3972 18.3613 22.9376C18.4716 22.4781 18.637 21.7245 18.7105 21.2465C18.8023 20.6399 18.784 20.3642 18.637 20.3642C18.5084 20.3642 18.343 20.4745 18.2327 20.6031ZM98.7308 22.7538C98.4735 22.0921 98.3082 21.412 98.3817 21.2465C98.4368 21.0627 98.6205 20.9156 98.8042 20.9156C99.0248 20.9034 99.331 21.2832 99.723 22.0553C100.054 22.6986 100.44 23.7097 100.587 24.3163C100.734 24.9229 100.899 26.2097 100.954 27.1655C100.991 28.1213 100.972 29.7391 100.881 30.75C100.789 31.761 100.678 32.8456 100.623 33.1397C100.568 33.4522 100.329 34.2243 100.072 34.886C99.8333 35.5478 99.3739 36.5587 99.0615 37.147C98.5103 38.158 98.4735 38.1948 97.9039 38.0845C97.5732 38.0294 97.169 37.864 97.022 37.7169C96.7831 37.4962 96.7831 37.3676 97.0587 36.5772C97.2241 36.0993 97.7385 34.886 98.1979 33.875C98.9145 32.3309 99.0983 31.6875 99.3554 29.8309C99.6312 27.9192 99.6312 27.3861 99.429 25.7869C99.3004 24.7758 98.988 23.4156 98.7308 22.7538ZM60.0895 2.258C59.428 2.40505 58.1786 2.71755 57.2782 2.9749C56.3962 3.23225 55.6061 3.41607 55.496 3.36092C55.3857 3.30577 54.761 3.47122 54.0627 3.72856C53.3829 3.98592 50.8472 4.79473 48.4218 5.5484C45.9964 6.30206 42.7258 7.33146 41.1639 7.82777C39.6021 8.32408 37.8932 8.83879 37.3972 8.96746C36.8827 9.09614 36.1661 9.35349 35.7802 9.55569C35.4127 9.73951 34.9166 9.88656 34.6777 9.88656C34.4573 9.88656 33.8141 10.144 33.2629 10.4748C32.7117 10.8056 31.8849 11.3755 31.4255 11.7431C30.8927 12.1844 30.3782 12.8645 29.9556 13.6732L29.3125 14.9232C29.3492 19.2063 29.4779 20.8974 29.6432 21.8349C29.7857 22.5795 29.9966 23.57 30.1344 24.2178L30.1944 24.5003C30.3414 25.107 31.1315 27.9194 31.9584 30.7502C32.5252 32.7349 33.092 34.6654 33.4308 35.8195C33.5753 36.3116 33.6784 36.6625 33.7223 36.8164C33.8693 37.3127 34.2368 38.5994 34.5308 39.6655C34.8064 40.7318 35.229 42.2942 35.4679 43.1581C35.6883 44.0221 35.9824 45.0516 36.111 45.4559C36.2396 45.8603 36.6071 47.1471 36.9195 48.3051C37.1506 49.1624 37.4423 50.2512 37.6602 51.0648L37.8565 51.7977C37.9612 52.1556 38.1322 52.7827 38.3321 53.516C38.5531 54.3271 38.8096 55.2679 39.0509 56.1175L39.395 57.3791C39.7395 58.6413 40.0757 59.8736 40.2268 60.4373C40.3356 60.8431 40.5349 61.5577 40.7589 62.3606L40.7592 62.3617L40.7597 62.3635C40.9515 63.0513 41.1613 63.8034 41.3477 64.4814L41.5725 65.3C41.9322 66.6099 42.3304 68.0601 42.542 68.8011C42.7707 69.6635 43.235 71.4522 43.5967 72.8452L43.6444 73.0291C44.0119 74.4442 44.5078 76.2637 44.7284 77.0726C44.9672 77.8815 45.5737 80.0878 46.0515 81.9811C46.8784 85.1061 46.9885 85.4554 47.4112 85.6024C47.6685 85.6944 48.5688 85.823 49.4324 85.8966C50.296 85.9517 51.9497 86.2642 53.1073 86.5583C54.2648 86.8708 55.845 87.3671 56.5984 87.6612C57.3517 87.9737 58.6747 88.5987 59.5383 89.0399C60.4019 89.4995 61.5044 90.1796 61.9821 90.5472C62.4782 90.9149 63.011 91.2457 63.1764 91.2642C63.3418 91.3008 63.6909 91.2457 63.9481 91.1539C64.2054 91.0619 65.2711 90.731 66.3368 90.4002L66.6976 90.2881L66.7005 90.2872C67.6946 89.9785 68.8294 89.6261 69.3685 89.4627C69.9749 89.2605 70.618 89.1134 70.7834 89.1134C70.9671 89.1134 71.7572 88.9112 72.5289 88.6538C73.319 88.4149 74.3664 88.0841 74.8809 87.9185C75.377 87.7531 76.4978 87.4223 77.3614 87.2017C78.2249 86.9627 79.6214 86.5216 80.485 86.2274C81.3486 85.9517 82.1571 85.6392 82.2674 85.5656C82.4511 85.4554 82.4511 85.3819 82.2674 85.1612C82.1571 84.9958 81.9366 84.8672 81.808 84.8855C81.6978 84.8855 81.3303 84.573 81.0363 84.187C80.7239 83.8194 80.2829 82.9922 80.0256 82.3489C79.7685 81.7239 79.4744 80.6025 79.3458 79.8672C79.1805 78.8562 79.1988 78.0291 79.3642 76.3378C79.4744 75.1247 79.75 73.4702 79.9522 72.6615C80.1543 71.8526 80.485 70.8416 80.6688 70.4004L81.0363 69.6284C80.2094 68.7093 79.7133 67.9005 79.4193 67.2387C79.107 66.577 78.7211 65.3453 78.5557 64.4814C78.3352 63.3969 78.2617 62.3858 78.3169 61.1726C78.372 60.2168 78.5557 58.9668 78.7211 58.4153C78.9049 57.8639 79.3642 56.5035 79.7685 55.3823L80.485 53.3602C80.0961 51.5736 79.656 49.753 79.2632 48.1276L79.2172 47.9375C79.1194 47.5502 79.0205 47.1571 78.9246 46.7753L78.9174 46.7464L78.9129 46.7287L78.9123 46.7265L78.9113 46.7223C78.5982 45.4764 78.318 44.3614 78.2066 43.9853C78.0775 43.533 77.778 42.2997 77.4827 41.0841L77.482 41.0813L77.3614 40.5847C77.049 39.2244 76.461 36.9082 76.0568 35.4377C75.6709 33.9671 75.2667 32.4047 75.1749 31.9451C75.083 31.4855 74.6788 29.7944 74.2561 28.1768C73.8519 26.5592 73.1904 23.8753 72.7862 22.2026C72.5361 21.1675 72.2366 19.8861 71.9795 18.7852L71.9785 18.7812L71.9783 18.7802C71.8203 18.1039 71.6783 17.496 71.5735 17.0556C71.3162 15.8975 70.7834 13.6917 70.3791 12.1844C69.9749 10.6586 69.4604 8.83879 69.2583 8.14027C69.0378 7.44175 68.5969 6.35721 68.2661 5.75059C67.9354 5.14399 67.2371 4.2065 66.7227 3.67342C66.2082 3.15872 65.4364 2.5521 64.9955 2.34991C64.4258 2.07418 63.8563 2.00065 62.7538 2.00065C61.9453 2.01903 60.751 2.12932 60.0895 2.258ZM83.7005 21.1548C83.3331 21.5776 82.8002 22.3864 82.5063 22.9378C82.2306 23.4893 81.2016 25.6584 80.2278 27.7724C79.254 29.8679 78.4639 31.6142 78.4639 31.6694C78.4639 31.7245 78.2801 32.037 78.0413 32.3679C77.7289 32.8274 77.637 33.1767 77.6737 34.0591C77.6922 34.6656 77.9493 36.0627 78.2617 37.184C78.3796 37.6337 78.5123 38.1278 78.6385 38.5973L78.6387 38.5983C78.8269 39.2993 79.0006 39.9458 79.0885 40.309C79.254 40.9155 79.7133 42.7354 80.1176 44.353C80.2599 44.9224 80.4089 45.517 80.5489 46.0747L80.5513 46.0841C80.8078 47.107 81.0331 48.0051 81.1281 48.3971C81.2935 49.0036 81.4589 49.6839 81.4956 49.9228C81.5507 50.1433 81.6794 50.3272 81.7713 50.3272C81.8631 50.3272 82.0836 50.0147 82.249 49.6471C82.4143 49.261 82.9655 47.6618 83.4617 46.0993C83.9578 44.5368 84.5826 42.4597 84.8397 41.5037L84.84 41.5026C85.0789 40.5466 85.5013 38.8563 85.7401 37.7354C85.9974 36.6142 86.273 35.0884 86.3833 34.3348C86.4138 34.0835 86.4527 33.7729 86.4941 33.4407C86.5771 32.7763 86.6711 32.0247 86.7323 31.4855C86.8242 30.6768 86.9161 29.0223 86.9345 27.8091C86.9528 26.5592 86.8793 25.4378 86.769 25.2356C86.6772 25.0334 86.4016 24.1695 86.181 23.3055C85.9606 22.4416 85.6115 21.4305 85.4277 21.0629C85.2073 20.6217 84.95 20.3644 84.7295 20.3644C84.5274 20.3644 84.068 20.7136 83.7005 21.1548ZM85.2073 46.0074C85.6483 44.4817 86.1075 43.103 86.2178 42.9192C86.3465 42.717 86.5486 42.6067 86.7139 42.6619C86.8793 42.717 87.5775 42.9927 88.2758 43.2869C88.9924 43.5626 89.9111 44.1324 90.3521 44.5369C91.0136 45.1434 91.1789 45.4375 91.3259 46.2831C91.4361 46.8346 91.5096 47.9192 91.5096 48.6728C91.5096 49.7206 91.3627 50.4558 90.9401 51.7058C90.6277 52.6066 89.7274 54.647 88.9373 56.2095C88.1655 57.772 87.0998 60.0514 86.5854 61.2646C86.0892 62.4777 85.5747 63.8012 85.4462 64.2056C85.3175 64.6101 85.097 65.1616 84.9683 65.4373C84.7662 65.8417 84.6193 65.9335 84.2885 65.8417C84.068 65.7866 83.6087 65.4741 83.2596 65.1431C82.9288 64.8306 82.4695 64.2792 82.2306 63.9299C82.0101 63.5807 81.6978 62.8638 81.5324 62.3675C81.3671 61.8528 81.1833 60.9887 81.1281 60.4373C81.0547 59.8858 81.1098 58.8565 81.22 58.1396C81.3303 57.4227 81.6977 56.0256 82.0469 55.0146C82.3776 54.0036 83.0391 52.1837 83.5168 50.9705C83.9946 49.7573 84.7479 47.5147 85.2073 46.0074ZM90.7195 57.68C90.5542 57.9374 90.2602 58.5624 90.0765 59.0586C89.8744 59.5733 89.0108 61.43 88.1472 63.1947C87.3019 64.9594 86.4383 66.5585 86.2546 66.7241C86.0709 66.8895 85.6298 67.2203 85.2807 67.4593C84.8582 67.7534 84.5274 68.2314 84.215 68.985C83.9762 69.5917 83.572 70.8783 83.3331 71.8343C83.0023 73.121 82.8737 74.0584 82.8737 75.4187C82.8737 76.4298 83.0023 77.79 83.1676 78.4518C83.3147 79.1135 83.6638 80.051 83.9394 80.5474C84.215 81.0436 84.7479 81.7238 85.1154 82.0547C85.5012 82.404 85.9789 82.6797 86.181 82.6797C86.4567 82.6797 86.6221 82.4775 86.8058 81.9076C86.9425 81.4974 87.2381 80.6736 87.4858 79.9837L87.5408 79.8304C87.7981 79.1135 88.092 78.3782 88.2023 78.176C88.2941 77.9739 89.0475 76.1541 89.8744 74.132C90.6828 72.11 91.5096 69.996 91.6934 69.4446C91.8472 68.9829 92.1298 68.0963 92.3794 67.313L92.3799 67.3114L92.5202 66.871C92.7775 66.0071 93.1082 64.7387 93.2552 64.0219C93.4023 63.3049 93.5308 62.4043 93.5124 61.9998C93.5124 61.5954 93.3655 60.8785 93.2 60.4006C93.0347 59.9226 92.6305 59.2057 92.2998 58.8381C91.969 58.4521 91.5464 57.9374 91.3627 57.68L91.0136 57.2205L90.7195 57.68ZM92.4467 72.6615C92.7591 71.9446 93.0899 71.2644 93.1817 71.1541C93.292 71.0254 93.4573 70.9151 93.5492 70.9151C93.6411 70.9151 93.9902 71.3011 94.3394 71.7975C94.6884 72.2754 95.111 73.0843 95.2948 73.5805C95.5704 74.3894 95.5704 74.6834 95.3683 76.0621C95.2396 76.926 94.8721 78.4518 94.5415 79.4628C94.2107 80.4738 93.3655 82.4591 92.6488 83.8745C91.9507 85.2899 91.1422 86.9811 90.8666 87.6428C90.6093 88.3046 90.15 89.573 89.8559 90.4921C89.562 91.4111 89.1577 92.3486 88.974 92.606C88.6249 93.0472 88.5881 93.0472 88.0185 92.7898C87.651 92.6244 87.2836 92.2383 87.0631 91.834C86.8793 91.4479 86.6037 90.5288 86.4567 89.812C86.273 88.9664 86.2178 88.0656 86.2913 87.3671C86.3465 86.7605 86.4751 85.9333 86.5669 85.529C86.6956 85.0694 87.0446 84.4995 87.5775 83.9665C88.2941 83.2311 88.5146 82.79 89.4701 80.1061C90.058 78.4334 90.8481 76.3746 91.234 75.5106C91.3556 75.2248 91.4973 74.8948 91.6431 74.555C91.9381 73.8678 92.2501 73.1412 92.4467 72.6615ZM50.7186 9.70274C50.4613 9.77626 48.973 10.3461 47.4112 10.9527C45.8494 11.5777 44.1774 12.3313 43.6812 12.6438C43.2035 12.938 42.689 13.3792 42.542 13.6181C42.3767 13.8387 42.2847 14.2248 42.3031 14.4821C42.3399 14.8497 42.4869 14.96 43.0014 15.0335C43.3505 15.0887 43.9752 15.0703 44.3795 14.9968C44.7837 14.9049 46.3639 14.335 47.8706 13.7284C49.3957 13.1218 51.1963 12.3313 51.9129 11.9453C52.7582 11.5042 53.2175 11.1366 53.2542 10.8976C53.291 10.677 53.1073 10.3277 52.7949 10.0152C52.4458 9.68435 52.0967 9.51892 51.7291 9.5373C51.4352 9.5373 50.9758 9.61082 50.7186 9.70274ZM56.5065 29.5003C56.1023 29.5371 55.404 29.6473 54.9447 29.776C54.4854 29.8862 53.8606 30.162 53.5666 30.401C53.2727 30.6216 52.6847 30.8973 52.2804 31.0259C51.8762 31.1547 51.1779 31.5223 50.7186 31.8164C50.2592 32.1289 49.4324 32.7723 48.8812 33.2319C48.3115 33.7281 47.3193 34.923 46.566 36.0075C45.8126 37.1104 45.0225 38.581 44.6734 39.4818C44.3427 40.3457 43.9385 41.5773 43.7915 42.2391C43.6445 42.9008 43.4791 44.7574 43.424 46.375C43.3505 48.5442 43.4056 49.7941 43.6261 51.1544C43.773 52.1654 44.2141 53.8565 44.5816 54.9227C44.949 55.9888 45.5002 57.3492 45.7943 57.9557C46.1066 58.5624 46.7681 59.6836 47.2826 60.4373C47.7971 61.191 48.5871 62.2755 49.0649 62.827C49.5427 63.3784 50.4981 64.2976 51.1963 64.8674C51.8946 65.4373 52.9235 66.1726 53.4748 66.5034C54.026 66.8343 55.1469 67.3857 55.9553 67.735C56.7821 68.0843 57.903 68.3968 58.5277 68.4703C59.134 68.5254 60.5305 68.5806 61.6514 68.5989C63.1213 68.5989 63.9849 68.5071 64.775 68.2681C65.3814 68.0843 66.3735 67.6799 66.98 67.3857C67.5863 67.0732 68.4131 66.5585 68.8357 66.246C69.2584 65.9335 70.1219 65.1063 70.7834 64.3895C71.4265 63.6726 72.2166 62.7351 72.5289 62.2755C72.8413 61.816 73.319 60.9887 73.5946 60.4373C73.8702 59.8858 74.3113 58.8932 74.5502 58.2314C74.8074 57.5697 75.1197 56.4117 75.2667 55.658C75.4321 54.9044 75.5974 53.2499 75.6526 51.9815C75.7261 50.2536 75.6894 49.2426 75.4505 47.8456C75.2667 46.8346 75.0462 45.6765 74.9544 45.2721C74.8441 44.8677 74.7338 44.3713 74.7155 44.1692C74.6788 43.967 74.5685 43.6361 74.4582 43.4338C74.348 43.2317 74.054 42.5331 73.7967 41.8714C73.631 41.4122 73.4564 40.9175 73.3344 40.5718L73.2747 40.4029L73.2365 40.2949L73.2088 40.217C73.1354 39.9597 72.7862 39.2611 72.4187 38.6546C72.0512 38.0479 71.1692 36.8531 70.4526 35.9892C69.7361 35.1252 68.7439 34.0406 68.2477 33.581C67.7516 33.1215 66.8513 32.423 66.2449 32.037C65.6385 31.6509 64.6464 31.0995 64.04 30.8054C63.4336 30.5297 62.3128 30.1436 61.5594 29.9598C60.8061 29.7576 59.5199 29.5554 58.7115 29.5186C57.903 29.4635 56.9108 29.4635 56.5065 29.5003ZM54.2097 31.5223L55.8634 31.1914C56.3228 31.1179 57.6457 31.0811 58.8033 31.1179C60.4202 31.173 61.192 31.2833 62.1107 31.6142C62.7721 31.8531 63.8011 32.3311 64.3891 32.6804C64.9955 33.0296 66.3735 34.1877 67.4576 35.2538C68.6887 36.4671 69.8096 37.7722 70.4343 38.7464C70.9855 39.6104 71.7756 41.1361 72.1798 42.1472C72.584 43.1581 73.0066 44.353 73.1353 44.8126C73.2639 45.2721 73.4844 46.1728 73.6131 46.8346C73.76 47.4963 73.9254 48.7279 73.9805 49.5919C74.054 50.6212 73.9805 51.9815 73.7784 53.544C73.6131 54.8492 73.2823 56.5403 73.0251 57.2572C72.7862 57.9925 72.3636 59.0403 72.1063 59.555C71.8307 60.0881 71.2244 61.099 70.7467 61.816C70.2689 62.5329 69.4237 63.4887 68.8908 63.9483C68.3396 64.4262 67.476 65.0512 66.9798 65.3821C66.4838 65.6946 65.3997 66.1726 64.5913 66.4483C63.3601 66.8527 62.7906 66.9446 61.192 66.9446C59.6669 66.9446 58.9871 66.8527 57.9765 66.5218C57.2599 66.2828 56.0288 65.7313 55.2202 65.3086C54.4118 64.8674 53.2175 64.0402 52.556 63.452C51.8946 62.8637 51.0861 62.0918 50.7554 61.724C50.4246 61.3748 49.708 60.4189 49.1568 59.6101C48.6056 58.8013 47.9256 57.6064 47.6317 56.9448C47.3377 56.283 46.8784 55.0881 46.6211 54.2794C46.3822 53.4705 45.978 52.0551 45.7759 51.1544C45.4819 49.9411 45.3716 48.9118 45.3716 47.2941C45.3716 45.7868 45.4819 44.5368 45.7392 43.342C45.9413 42.3861 46.3087 41.0258 46.5476 40.3089C46.7864 39.5921 47.2275 38.5626 47.5031 38.0111C47.7787 37.4597 48.2748 36.6325 48.5688 36.1729C48.8812 35.7134 49.6896 34.8127 50.3511 34.1509C51.0126 33.4892 51.9681 32.6804 52.4641 32.3311C52.9786 31.9819 53.7504 31.6142 54.2097 31.5223ZM62.4782 38.6914C62.3679 38.9854 62.2577 39.5001 62.2577 39.8494C62.2577 40.1987 62.423 40.8788 62.6436 41.3568C62.8457 41.853 63.2315 42.3677 63.4887 42.5148C63.8378 42.717 64.0767 42.7538 64.4626 42.6067C64.7566 42.5148 65.069 42.184 65.2343 41.8347C65.3813 41.5038 65.4732 40.8972 65.4549 40.4928C65.4181 40.0883 65.3262 39.4818 65.216 39.1508C65.1241 38.7832 64.8669 38.4891 64.5913 38.3789C64.334 38.2685 63.8011 38.195 63.4153 38.195C62.8089 38.195 62.6619 38.2685 62.4782 38.6914ZM56.4881 39.5737C56.5617 40.3825 56.7453 41.7427 56.8924 42.6067C57.0394 43.4706 57.2966 44.7023 57.4436 45.3641C57.6089 46.0257 57.9397 47.0735 58.1786 47.7169C58.4174 48.3419 58.5828 48.8566 58.5277 48.8566C58.4725 48.8566 58.546 49.1691 58.693 49.5368C58.8401 49.9228 59.1892 50.989 59.4464 51.8897C59.558 52.2544 59.6636 52.6132 59.7535 52.9184C59.8854 53.3666 59.9833 53.699 60.016 53.7647C60.0528 53.8933 60.2732 54.0036 60.5122 54.0036C60.7326 54.0036 61.7983 53.3602 62.9375 52.4963C64.0584 51.6691 65.0138 50.897 65.0873 50.8051C65.1608 50.6948 65.0506 50.4558 64.8485 50.2721C64.6647 50.1066 64.4442 49.9596 64.3707 49.9596C64.2789 49.9412 64.0951 50.0882 63.9481 50.2537C63.8011 50.4191 63.1397 50.9154 62.4782 51.3566C61.8167 51.7977 61.2103 52.1654 61.1 52.1654C61.0082 52.1838 60.8244 51.9448 60.6958 51.6691C60.5673 51.3933 60.4202 50.897 60.3467 50.6029C60.2916 50.3089 60.0528 49.4265 59.8139 48.6728C59.5751 47.9192 59.1157 46.1728 58.7849 44.8126C58.4542 43.4523 57.8845 41.467 57.4803 40.4008C57.0945 39.3347 56.6903 38.3972 56.58 38.2869C56.433 38.1582 56.4146 38.5075 56.4881 39.5737ZM50.3878 43.7096C50.4798 43.4523 50.6819 43.103 50.8472 42.9192C51.0126 42.7538 51.2147 42.6067 51.2882 42.6067C51.3801 42.6067 51.6373 42.6986 51.8762 42.7905C52.0967 42.9008 52.5009 43.3604 52.7949 43.8016C53.2175 44.5184 53.2726 44.7574 53.1991 45.6398C53.1256 46.5038 53.0338 46.6692 52.6479 46.8346C52.3171 46.9632 52.0415 46.9449 51.6924 46.7795C51.4352 46.6692 51.0493 46.3567 50.8655 46.0993C50.6634 45.842 50.443 45.3089 50.3695 44.9045C50.296 44.5001 50.296 43.967 50.3878 43.7096ZM69.0929 51.1911C68.7805 51.2463 68.7255 51.375 68.7255 52.1654C68.7255 52.6617 68.5049 53.7647 68.2477 54.5919C67.9721 55.4374 67.6046 56.4484 67.3841 56.8528C67.182 57.2572 66.7594 57.9006 66.447 58.2682C66.1347 58.6359 65.5467 59.1874 65.1425 59.4815C64.7382 59.7756 64.0033 60.18 63.4887 60.4006C62.6251 60.7682 62.4782 60.7682 60.9164 60.5476C60.016 60.419 58.9319 60.1432 58.5277 59.9226C58.1235 59.7204 57.2599 59.0587 56.5984 58.4704C55.9369 57.8639 55.2203 57.3124 54.9998 57.2572C54.669 57.1653 54.5772 57.2021 54.5772 57.441C54.5772 57.6249 54.8345 58.1764 55.1652 58.6726C55.496 59.169 56.1941 59.9043 56.6903 60.2719C57.2047 60.6579 58.0316 61.1543 58.5277 61.3932C59.3178 61.7425 59.7587 61.7976 61.6514 61.816C63.6909 61.816 63.9298 61.7793 64.922 61.3013C65.4916 61.0255 66.3185 60.4557 66.7594 60.0146C67.182 59.5733 67.8802 58.691 68.3212 58.0293C68.7622 57.3859 69.2951 56.3932 69.4972 55.8418C69.7728 55.1249 69.9014 54.2977 69.9382 53.0662C69.9932 51.6507 69.9382 51.283 69.7361 51.2279C69.589 51.1912 69.2951 51.1727 69.0929 51.1911Z" fill="#283755"/>
</g>
<defs>
<clipPath id="clip0_3272_104138">
<rect width="114.05" height="120" fill="white" transform="translate(2.97559)"/>
</clipPath>
</defs>
</svg>
